# Blender v2.79 (sub 0) OBJ File: ''
# www.blender.org
mtllib sphere_lod4.mtl
o Cube.001
v -0.193320 -0.891404 -0.055396
v 0.089328 -0.782053 -0.464262
v 0.621617 -0.656798 0.069773
v 0.536800 -0.534733 -0.474983
v 0.451653 -0.623466 0.481959
v -0.242886 -0.634747 0.625256
v -0.684391 -0.579592 -0.032678
v 0.085717 0.876463 -0.177288
v 0.446003 0.580470 -0.529006
v -0.350725 0.534001 -0.664348
v -0.462390 0.749783 -0.173747
v -0.332815 0.765783 0.339148
v 0.305605 0.692989 0.512599
v 0.860953 -0.112741 0.183200
v 0.744958 -0.081133 -0.517973
v 0.805028 0.462806 0.063376
v -0.091715 -0.122152 0.878498
v 0.514377 -0.107561 0.743967
v -0.024403 0.385665 0.837731
v -0.645726 0.158945 0.618249
v -0.848857 -0.221747 0.220037
v -0.806663 0.396691 -0.053987
v -0.783690 -0.043489 -0.433179
v 0.199050 0.037459 -0.911041
v -0.466280 -0.330366 -0.724728
vt 0.863479 0.950012
vt 0.848057 0.833840
vt 0.949533 0.783555
vt 0.974212 0.012690
vt 0.848599 0.132979
vt 0.797383 0.036949
vt 0.997543 0.077473
vt 0.945738 0.192173
vt 0.026701 0.037706
vt 0.186042 0.085518
vt 0.054654 0.233563
vt 0.034452 0.935846
vt 0.227698 0.831523
vt 0.149234 0.971069
vt 0.520748 0.546954
vt 0.634908 0.648327
vt 0.524842 0.707364
vt 0.391232 0.691804
vt 0.370722 0.552929
vt 0.369359 0.540390
vt 0.407887 0.398701
vt 0.246035 0.419406
vt 0.853874 0.321163
vt 0.410619 0.231644
vt 0.276649 0.287342
vt 0.144382 0.294006
vt 0.113290 0.638746
vt 0.237065 0.584274
vt 0.202163 0.708394
vt 0.056629 0.785647
vt 0.656057 0.823424
vt 0.785682 0.732837
vt 0.374965 0.854928
vt 0.748207 0.571467
vt 0.482315 0.315991
vt 0.590371 0.361767
vt 0.717602 0.405726
vt 0.889059 0.641502
vt 0.735800 0.212932
vt 0.655584 0.132168
vt 0.614030 0.222255
vt 0.333444 0.137534
vn 0.0853 -0.8377 -0.5395
vn 0.5949 -0.5889 -0.5470
vn 0.6790 -0.7324 0.0492
vn -0.2036 -0.9782 -0.0406
vn 0.4540 -0.7006 0.5505
vn -0.2702 -0.6851 0.6765
vn -0.7443 -0.6656 -0.0552
vn -0.4743 -0.3744 -0.7967
vn 0.1299 0.9744 -0.1836
vn 0.4896 0.6448 -0.5869
vn -0.3711 0.5535 -0.7456
vn -0.5145 0.8363 -0.1897
vn -0.3801 0.8377 0.3922
vn -0.9016 0.4304 -0.0423
vn 0.9696 -0.1300 0.2075
vn -0.0272 0.4206 0.9068
vn -0.7132 0.1696 0.6801
vn -0.9312 -0.2428 0.2718
vn -0.8781 -0.0269 -0.4778
vn 0.1893 0.0221 -0.9817
vn 0.8366 -0.0729 -0.5430
vn 0.8580 0.5064 0.0865
vn 0.3796 0.7549 0.5348
vn 0.5780 -0.0895 0.8111
vn -0.1114 -0.1880 0.9758
usemtl Material.001
s 1
f 2/1/1 4/2/2 3/3/3
f 1/4/4 5/5/5 6/6/6
f 2/7/1 3/8/3 1/4/4
f 1/9/4 6/10/6 7/11/7
f 1/12/4 25/13/8 2/14/1
f 8/15/9 9/16/10 10/17/11
f 8/15/9 10/18/11 11/19/12
f 8/15/9 11/20/12 12/21/13
f 11/20/12 22/22/14 12/21/13
f 14/23/15 5/5/5 3/8/3
f 19/24/16 12/21/13 20/25/17
f 21/26/18 6/10/6 20/25/17
f 21/26/18 20/25/17 22/22/14
f 21/27/18 22/28/14 23/29/19
f 22/28/14 10/18/11 23/29/19
f 22/28/14 11/19/12 10/18/11
f 23/29/19 25/13/8 7/30/7
f 24/31/20 9/16/10 15/32/21
f 10/17/11 9/16/10 24/31/20
f 24/31/20 4/2/2 2/1/1
f 24/33/20 2/14/1 25/13/8
f 25/13/8 10/18/11 24/33/20
f 25/13/8 23/29/19 10/18/11
f 1/4/4 3/8/3 5/5/5
f 7/11/7 6/10/6 21/26/18
f 1/12/4 7/30/7 25/13/8
f 8/15/9 16/34/22 9/16/10
f 13/35/23 12/21/13 19/24/16
f 8/15/9 12/21/13 13/36/23
f 8/15/9 13/36/23 16/37/22
f 14/38/15 3/3/3 15/32/21
f 15/32/21 3/3/3 4/2/2
f 14/38/15 15/32/21 16/34/22
f 16/34/22 15/32/21 9/16/10
f 14/23/15 16/37/22 18/39/24
f 18/39/24 16/37/22 13/36/23
f 14/23/15 18/39/24 5/5/5
f 17/40/25 6/6/6 18/39/24
f 18/39/24 6/6/6 5/5/5
f 17/40/25 18/39/24 19/41/16
f 19/41/16 18/39/24 13/36/23
f 17/42/25 19/24/16 20/25/17
f 17/42/25 20/25/17 6/10/6
f 22/22/14 20/25/17 12/21/13
f 21/27/18 23/29/19 7/30/7
f 24/31/20 15/32/21 4/2/2
