# Blender v2.79 (sub 0) OBJ File: ''
# www.blender.org
mtllib sphere_lod2.mtl
o Cube.001
v 0.039187 -0.865246 0.093669
v 0.263528 -0.825270 -0.099006
v 0.552706 -0.670791 -0.072860
v 0.123135 -0.821890 -0.276099
v 0.461839 -0.607296 -0.433991
v 0.614505 -0.511760 -0.350085
v 0.211184 -0.651456 -0.543013
v -0.075327 -0.623661 -0.616251
v 0.236111 -0.738507 0.402231
v -0.132705 -0.769044 0.403465
v 0.074431 -0.558398 0.667586
v 0.409270 -0.749712 0.161752
v 0.364619 -0.506389 0.611258
v 0.481913 -0.599889 0.416509
v 0.648725 -0.543902 0.220567
v -0.267258 -0.827021 0.085908
v -0.552773 -0.670810 0.071640
v -0.461839 -0.607295 0.433991
v -0.215945 -0.645788 0.547179
v -0.317850 -0.780756 -0.249068
v -0.358828 -0.612204 -0.509789
v -0.654029 -0.536995 -0.219611
v -0.597950 -0.418454 -0.489196
v -0.082878 0.864519 -0.086580
v 0.264829 0.823098 -0.145259
v -0.080660 0.789531 -0.351679
v 0.203213 0.653300 -0.544843
v -0.072921 0.600482 -0.638316
v 0.613098 0.630313 -0.024075
v 0.501565 0.617468 -0.363485
v 0.459755 0.445931 -0.596973
v -0.328458 0.766830 -0.241348
v -0.351681 0.789530 0.080654
v -0.554451 0.669690 -0.077482
v -0.504481 0.610381 -0.369480
v -0.219899 0.655873 -0.534677
v -0.404769 0.481522 -0.609954
v -0.139462 0.809067 0.315181
v 0.069769 0.634108 0.603223
v -0.206468 0.540008 0.658292
v -0.412670 0.599734 0.485885
v -0.520872 0.640909 0.290872
v -0.693685 0.517478 0.144775
v 0.252721 0.801026 0.239328
v 0.471898 0.693684 0.228945
v 0.641804 0.522860 0.287372
v 0.412507 0.599592 0.486171
v 0.219897 0.534677 0.655873
v 0.865124 -0.083826 0.082069
v 0.819884 -0.090100 -0.279522
v 0.627559 0.089313 -0.610342
v 0.557040 -0.066676 -0.670344
v 0.768463 -0.254388 -0.342519
v 0.505171 -0.370399 -0.609297
v 0.772575 -0.413276 0.001092
v 0.800058 0.254601 -0.239673
v 0.827844 0.268978 0.075272
v 0.693684 0.471898 -0.228944
v 0.618788 0.361603 -0.497786
v 0.731219 0.306408 0.376827
v 0.800352 -0.131458 0.328460
v 0.610342 0.089314 0.627559
v 0.670342 -0.066679 0.557041
v 0.497513 0.366600 0.616561
v 0.610379 -0.369481 0.504481
v 0.086581 -0.082879 0.864519
v 0.404478 -0.145489 0.762956
v 0.241343 -0.328461 0.766831
v -0.160509 -0.411194 0.757780
v 0.075256 0.284523 0.821016
v 0.328461 0.241343 0.766831
v -0.243163 0.256003 0.798327
v -0.267598 -0.126550 0.824572
v -0.547610 -0.007879 0.688983
v -0.672198 0.097321 0.547204
v -0.516305 0.362137 0.604846
v -0.506198 -0.368137 0.609901
v -0.864519 -0.082879 0.086581
v -0.763659 -0.151466 0.402817
v -0.701747 -0.445411 0.292274
v -0.771633 -0.413455 -0.002420
v -0.821155 0.284465 0.074719
v -0.731863 0.303462 0.378197
v -0.798215 0.254259 -0.246401
v -0.821837 -0.118238 -0.281144
v -0.684097 0.018216 -0.554617
v -0.518120 -0.131830 -0.696522
v -0.614004 0.358502 -0.508051
v -0.693684 0.471898 -0.228944
v 0.082070 -0.083826 -0.865124
v 0.003323 0.272539 -0.834176
v 0.273491 0.347031 -0.758996
v 0.328459 -0.131458 -0.800352
v 0.159201 -0.406424 -0.760809
v -0.289330 -0.083876 -0.818154
v -0.303463 -0.378197 -0.731863
v -0.409174 0.234116 -0.735749
vt 0.972913 0.924359
vt 0.864267 0.858319
vt 0.960397 0.827806
vt 0.974212 0.012690
vt 0.879140 0.075922
vt 0.863689 0.009854
vt 0.997543 0.077473
vt 0.944706 0.123939
vt 0.808126 0.127226
vt 0.780759 0.054279
vt 0.869540 0.150721
vt 0.981013 0.177602
vt 0.908632 0.203227
vt 0.026290 0.000342
vt 0.117532 0.042770
vt 0.027129 0.076645
vt 0.135733 0.141681
vt 0.039607 0.172238
vt 0.000100 0.999900
vt 0.074660 0.904732
vt 0.085166 0.996926
vt 0.156244 0.883343
vt 0.195019 0.952590
vt 0.018992 0.822435
vt 0.092397 0.794762
vt 0.169647 0.806495
vt 0.479148 0.524032
vt 0.573072 0.540579
vt 0.476780 0.596551
vt 0.573609 0.658700
vt 0.524842 0.707364
vt 0.646634 0.609904
vt 0.407008 0.568910
vt 0.403449 0.476782
vt 0.352032 0.609954
vt 0.334998 0.533547
vt 0.426735 0.655675
vt 0.366432 0.684552
vt 0.458757 0.411645
vt 0.348403 0.409785
vt 0.329940 0.487024
vt 0.286241 0.429016
vt 0.569983 0.433068
vt 0.636300 0.428928
vt 0.699842 0.469490
vt 0.693076 0.397683
vt 0.527997 0.318040
vt 0.623767 0.356198
vt 0.586032 0.301512
vt 0.832470 0.690839
vt 0.847788 0.748812
vt 0.729831 0.721659
vt 0.889059 0.641502
vt 0.795634 0.821509
vt 0.744543 0.773460
vt 0.873390 0.809187
vt 0.771253 0.627924
vt 0.809435 0.572544
vt 0.715756 0.594750
vt 0.689903 0.532781
vt 0.698428 0.669429
vt 0.649705 0.683993
vt 0.872673 0.344262
vt 0.736005 0.347744
vt 0.825137 0.285854
vt 0.721659 0.270169
vt 0.773461 0.255456
vt 0.796202 0.407510
vt 0.669446 0.301600
vt 0.933635 0.267794
vt 0.821714 0.204498
vt 0.655584 0.132168
vt 0.740376 0.123617
vt 0.726639 0.184833
vt 0.706000 0.064800
vt 0.589724 0.207825
vt 0.648526 0.242732
vt 0.361254 0.113290
vt 0.371271 0.229294
vt 0.305490 0.161904
vt 0.326031 0.304502
vt 0.268918 0.232391
vt 0.254629 0.288377
vt 0.430251 0.194954
vt 0.414476 0.302518
vt 0.376261 0.356224
vt 0.204255 0.178664
vt 0.253857 0.092939
vt 0.167295 0.080166
vt 0.132168 0.344416
vt 0.125225 0.222636
vt 0.184895 0.272617
vt 0.263663 0.347801
vt 0.207784 0.410263
vt 0.113290 0.638746
vt 0.229772 0.629435
vt 0.164626 0.696436
vt 0.303053 0.671740
vt 0.238592 0.720000
vt 0.194932 0.569763
vt 0.284244 0.594750
vt 0.259000 0.535700
vt 0.066452 0.732138
vt 0.655738 0.872673
vt 0.624621 0.738815
vt 0.714146 0.825137
vt 0.744769 0.907450
vt 0.834342 0.920034
vt 0.358498 0.889059
vt 0.238134 0.871303
vt 0.307422 0.830490
vt 0.294000 0.935200
vt 0.334443 0.744537
vt 0.414215 0.801917
vt 0.465063 0.703121
vt 0.247833 0.787987
vt 0.999900 0.999900
vt 0.908248 0.963685
vt 0.798579 0.972980
vt 0.226645 0.034463
vt 0.002541 0.921488
vt 0.482315 0.315991
vt 0.936247 0.729444
vt 0.063757 0.270665
vt 0.593557 0.797747
vn 0.3212 -0.9407 -0.1089
vn 0.5008 -0.7117 -0.4926
vn 0.6295 -0.7709 -0.0975
vn 0.0427 -0.9942 0.0984
vn 0.2466 -0.8569 0.4527
vn -0.1379 -0.8874 0.4398
vn 0.4536 -0.8727 0.1808
vn 0.4124 -0.5692 0.7113
vn 0.0888 -0.6440 0.7598
vn 0.5483 -0.6932 0.4679
vn 0.7554 -0.6056 0.2501
vn -0.3045 -0.9480 0.0924
vn -0.5176 -0.7031 0.4876
vn -0.6202 -0.7804 0.0794
vn -0.3487 -0.8935 -0.2831
vn 0.1089 -0.9403 -0.3224
vn -0.4286 -0.7113 -0.5572
vn -0.0880 -0.7191 -0.6893
vn -0.7376 -0.6204 -0.2667
vn -0.6916 -0.4747 -0.5444
vn -0.0775 0.9942 -0.0749
vn 0.2980 0.9403 -0.1643
vn -0.0599 0.9133 -0.4027
vn 0.2329 0.7613 -0.6051
vn -0.0687 0.6592 -0.7488
vn 0.5558 0.7258 -0.4054
vn -0.3723 0.8882 -0.2692
vn -0.3977 0.9131 0.0896
vn -0.5747 0.7032 -0.4185
vn -0.6316 0.7709 -0.0831
vn -0.2687 0.7666 -0.5832
vn -0.4383 0.5395 -0.7189
vn -0.1410 0.9245 0.3542
vn -0.5900 0.7361 0.3316
vn -0.7937 0.5892 0.1513
vn 0.2607 0.9287 0.2637
vn 0.5262 0.8165 0.2378
vn 0.6925 0.7209 -0.0280
vn 0.7381 0.5886 0.3299
vn 0.0647 0.7391 0.6705
vn 0.4681 0.6925 0.5489
vn 0.2570 0.5865 0.7681
vn 0.9528 -0.0626 -0.2971
vn 0.8727 -0.2909 -0.3922
vn 0.7147 0.1103 -0.6906
vn 0.9941 -0.0773 0.0764
vn 0.5708 -0.4235 -0.7034
vn 0.6266 -0.0826 -0.7750
vn 0.7265 -0.5756 -0.3753
vn 0.9263 0.2598 -0.2730
vn 0.9527 0.2918 0.0845
vn 0.8068 0.5349 -0.2509
vn 0.7304 0.3980 -0.5550
vn 0.5157 0.5052 -0.6920
vn 0.8445 0.3210 0.4288
vn 0.9196 -0.1424 0.3660
vn 0.6922 0.1127 0.7128
vn 0.7850 -0.0814 0.6141
vn 0.5737 0.4273 0.6988
vn 0.8900 -0.4560 -0.0023
vn 0.7072 -0.4072 0.5780
vn 0.0871 -0.0794 0.9930
vn 0.2519 -0.3809 0.8897
vn 0.4620 -0.1557 0.8731
vn -0.1854 -0.4605 0.8681
vn 0.0709 0.3119 0.9475
vn 0.3696 0.2497 0.8950
vn -0.2728 0.2720 0.9228
vn -0.2939 -0.1296 0.9470
vn -0.5857 0.4114 0.6984
vn -0.6070 -0.0156 0.7946
vn -0.7884 0.1175 0.6038
vn -0.2245 0.6139 0.7568
vn -0.4696 0.6880 0.5533
vn -0.5713 -0.4157 0.7077
vn -0.2589 -0.7098 0.6551
vn -0.9924 -0.0728 0.0991
vn -0.8013 -0.4982 0.3313
vn -0.8789 -0.1576 0.4502
vn -0.8437 0.3304 0.4231
vn -0.9546 0.2886 0.0741
vn -0.9260 0.2641 -0.2699
vn -0.9411 -0.1414 -0.3071
vn -0.7163 0.3932 -0.5764
vn -0.7850 0.0251 -0.6190
vn -0.8039 0.5411 -0.2468
vn -0.8916 -0.4526 -0.0140
vn 0.0653 -0.0854 -0.9942
vn 0.3156 0.3667 -0.8752
vn 0.3809 -0.1166 -0.9172
vn 0.1693 -0.4595 -0.8719
vn 0.2547 -0.7409 -0.6215
vn -0.3175 -0.4254 -0.8475
vn -0.2861 -0.0767 -0.9551
vn -0.4398 0.2622 -0.8590
vn -0.0217 0.2974 -0.9545
vn -0.5922 -0.1519 -0.7913
usemtl Material.001
s 1
f 2/1/1 5/2/2 3/3/3
f 1/4/4 9/5/5 10/6/6
f 2/7/1 12/8/7 1/4/4
f 9/5/5 13/9/8 11/10/9
f 12/8/7 14/11/10 9/5/5
f 3/12/3 15/13/11 12/8/7
f 12/8/7 15/13/11 14/11/10
f 1/14/4 10/15/6 16/16/12
f 16/16/12 18/17/13 17/18/14
f 1/19/4 20/20/15 4/21/16
f 20/20/15 21/22/17 8/23/18
f 17/24/14 22/25/19 20/20/15
f 20/20/15 23/26/20 21/22/17
f 24/27/21 25/28/22 26/29/23
f 26/29/23 27/30/24 28/31/25
f 25/28/22 30/32/26 27/30/24
f 24/27/21 32/33/27 33/34/28
f 32/33/27 35/35/29 34/36/30
f 26/29/23 36/37/31 32/33/27
f 36/37/31 37/38/32 35/35/29
f 24/27/21 33/34/28 38/39/33
f 33/34/28 42/40/34 38/39/33
f 34/41/30 43/42/35 42/40/34
f 24/27/21 44/43/36 25/28/22
f 25/28/22 45/44/37 29/45/38
f 45/44/37 46/46/39 29/45/38
f 38/39/33 39/47/40 44/43/36
f 44/43/36 47/48/41 45/44/37
f 39/47/40 48/49/42 47/48/41
f 50/50/43 53/51/44 51/52/45
f 49/53/46 53/51/44 50/50/43
f 53/51/44 54/54/47 52/55/48
f 6/56/49 5/2/2 54/54/47
f 49/53/46 56/57/50 57/58/51
f 57/58/51 58/59/52 29/60/38
f 58/59/52 30/32/26 29/60/38
f 50/50/43 51/52/45 56/57/50
f 56/57/50 59/61/53 58/59/52
f 59/61/53 31/62/54 30/32/26
f 49/63/46 60/64/55 61/65/56
f 61/65/56 62/66/57 63/67/58
f 57/68/51 46/46/39 60/64/55
f 60/64/55 47/48/41 64/69/59
f 55/70/60 15/13/11 3/12/3
f 49/63/46 61/65/56 55/70/60
f 61/65/56 65/71/61 15/13/11
f 66/72/62 68/73/63 67/74/64
f 67/74/64 65/71/61 63/67/58
f 69/75/65 11/10/9 68/73/63
f 68/73/63 13/9/8 67/74/64
f 13/9/8 14/11/10 65/71/61
f 70/76/66 48/49/42 39/47/40
f 66/72/62 71/77/67 70/76/66
f 67/74/64 62/66/57 71/77/67
f 71/77/67 64/69/59 48/49/42
f 66/78/62 72/79/68 73/80/69
f 72/79/68 76/81/70 74/82/71
f 74/82/71 76/81/70 75/83/72
f 70/84/66 40/85/73 72/79/68
f 40/85/73 41/86/74 76/81/70
f 73/80/69 77/87/75 69/88/65
f 69/88/65 18/17/13 19/89/76
f 78/90/77 80/91/78 79/92/79
f 79/92/79 77/87/75 74/82/71
f 80/91/78 18/17/13 77/87/75
f 78/90/77 83/93/80 82/94/81
f 79/92/79 75/83/72 83/93/80
f 75/83/72 76/81/70 83/93/80
f 83/93/80 41/86/74 42/40/34
f 78/95/77 84/96/82 85/97/83
f 84/96/82 88/98/84 86/99/85
f 82/100/81 89/101/86 84/96/82
f 43/102/35 34/36/30 89/101/86
f 89/101/86 35/35/29 88/98/84
f 81/103/87 22/25/19 17/24/14
f 85/97/83 23/26/20 22/25/19
f 90/104/88 92/105/89 93/106/90
f 93/106/90 51/52/45 52/55/48
f 92/105/89 31/62/54 51/52/45
f 28/31/25 27/30/24 92/105/89
f 90/104/88 93/106/90 94/107/91
f 93/106/90 54/54/47 94/107/91
f 94/107/91 5/2/2 7/108/92
f 90/109/88 96/110/93 95/111/94
f 94/112/91 8/23/18 96/110/93
f 8/23/18 21/22/17 96/110/93
f 95/111/94 97/113/95 91/114/96
f 91/114/96 37/38/32 28/115/25
f 87/116/97 86/99/85 97/113/95
f 97/113/95 88/98/84 37/38/32
f 1/117/4 4/118/16 2/1/1
f 2/1/1 4/118/16 5/2/2
f 3/3/3 5/2/2 6/56/49
f 4/118/16 8/119/18 7/108/92
f 4/118/16 7/108/92 5/2/2
f 10/6/6 9/5/5 11/10/9
f 1/4/4 12/8/7 9/5/5
f 2/7/1 3/12/3 12/8/7
f 9/5/5 14/11/10 13/9/8
f 16/16/12 10/15/6 18/17/13
f 17/18/14 18/17/13 80/91/78
f 10/15/6 19/89/76 18/17/13
f 10/15/6 11/120/9 19/89/76
f 1/19/4 16/121/12 20/20/15
f 4/21/16 20/20/15 8/23/18
f 16/121/12 17/24/14 20/20/15
f 20/20/15 22/25/19 23/26/20
f 26/29/23 25/28/22 27/30/24
f 25/28/22 29/60/38 30/32/26
f 27/30/24 30/32/26 31/62/54
f 33/34/28 32/33/27 34/36/30
f 24/27/21 26/29/23 32/33/27
f 26/29/23 28/115/25 36/37/31
f 32/33/27 36/37/31 35/35/29
f 39/122/40 38/39/33 40/85/73
f 38/39/33 41/86/74 40/85/73
f 33/34/28 34/41/30 42/40/34
f 38/39/33 42/40/34 41/86/74
f 24/27/21 38/39/33 44/43/36
f 25/28/22 44/43/36 45/44/37
f 44/43/36 39/47/40 47/48/41
f 45/44/37 47/48/41 46/46/39
f 51/52/45 53/51/44 52/55/48
f 49/53/46 55/123/60 53/51/44
f 53/51/44 55/123/60 6/56/49
f 53/51/44 6/56/49 54/54/47
f 55/123/60 3/3/3 6/56/49
f 49/53/46 50/50/43 56/57/50
f 57/58/51 56/57/50 58/59/52
f 56/57/50 51/52/45 59/61/53
f 58/59/52 59/61/53 30/32/26
f 49/63/46 57/68/51 60/64/55
f 61/65/56 60/64/55 62/66/57
f 62/66/57 60/64/55 64/69/59
f 57/68/51 29/45/38 46/46/39
f 60/64/55 46/46/39 47/48/41
f 55/70/60 61/65/56 15/13/11
f 61/65/56 63/67/58 65/71/61
f 15/13/11 65/71/61 14/11/10
f 62/66/57 67/74/64 63/67/58
f 66/72/62 69/75/65 68/73/63
f 68/73/63 11/10/9 13/9/8
f 67/74/64 13/9/8 65/71/61
f 66/72/62 67/74/64 71/77/67
f 70/76/66 71/77/67 48/49/42
f 71/77/67 62/66/57 64/69/59
f 48/49/42 64/69/59 47/48/41
f 66/78/62 70/84/66 72/79/68
f 73/80/69 72/79/68 74/82/71
f 70/84/66 39/122/40 40/85/73
f 72/79/68 40/85/73 76/81/70
f 66/78/62 73/80/69 69/88/65
f 11/120/9 69/88/65 19/89/76
f 73/80/69 74/82/71 77/87/75
f 69/88/65 77/87/75 18/17/13
f 75/83/72 79/92/79 74/82/71
f 78/90/77 81/124/87 80/91/78
f 79/92/79 80/91/78 77/87/75
f 81/124/87 17/18/14 80/91/78
f 78/90/77 79/92/79 83/93/80
f 82/94/81 83/93/80 43/42/35
f 43/42/35 83/93/80 42/40/34
f 83/93/80 76/81/70 41/86/74
f 78/95/77 82/100/81 84/96/82
f 85/97/83 84/96/82 86/99/85
f 82/100/81 43/102/35 89/101/86
f 84/96/82 89/101/86 88/98/84
f 89/101/86 34/36/30 35/35/29
f 88/98/84 35/35/29 37/38/32
f 78/95/77 85/97/83 81/103/87
f 81/103/87 85/97/83 22/25/19
f 85/97/83 86/99/85 23/26/20
f 86/99/85 87/116/97 23/26/20
f 90/104/88 91/125/96 92/105/89
f 93/106/90 92/105/89 51/52/45
f 51/52/45 31/62/54 59/61/53
f 91/125/96 28/31/25 92/105/89
f 92/105/89 27/30/24 31/62/54
f 8/119/18 94/107/91 7/108/92
f 93/106/90 52/55/48 54/54/47
f 94/107/91 54/54/47 5/2/2
f 90/109/88 94/112/91 96/110/93
f 95/111/94 96/110/93 87/116/97
f 87/116/97 96/110/93 23/26/20
f 96/110/93 21/22/17 23/26/20
f 90/109/88 95/111/94 91/114/96
f 91/114/96 97/113/95 37/38/32
f 28/115/25 37/38/32 36/37/31
f 95/111/94 87/116/97 97/113/95
f 97/113/95 86/99/85 88/98/84
