# Blender v2.79 (sub 0) OBJ File: ''
# www.blender.org
mtllib african_head_eye_inner_lod2.mtl
o eyeInner
v -0.073163 0.307426 0.395329
v -0.094191 0.355486 0.393579
v -0.088644 0.319798 0.438697
v -0.119750 0.380616 0.391346
v -0.151791 0.396588 0.388544
v -0.206154 0.400351 0.383695
v -0.189599 0.393822 0.429869
v -0.222485 0.388687 0.426962
v -0.254158 0.379220 0.379583
v -0.287223 0.342585 0.376656
v -0.292478 0.320900 0.412037
v -0.300334 0.285882 0.375546
v -0.294371 0.250462 0.376068
v -0.277808 0.218646 0.377517
v -0.252243 0.193513 0.379756
v -0.220209 0.177545 0.382558
v -0.184813 0.172292 0.385651
v -0.149545 0.178277 0.388740
v -0.117831 0.194913 0.391513
v -0.084766 0.231546 0.394364
v -0.088810 0.253815 0.438678
v -0.083519 0.286796 0.439137
v -0.104773 0.349028 0.436710
v -0.141682 0.381380 0.435166
v -0.264399 0.362313 0.424438
v -0.289408 0.287497 0.437369
v -0.289781 0.254521 0.420540
v -0.274867 0.225120 0.421861
v -0.238269 0.192756 0.426710
v -0.191708 0.188564 0.445917
v -0.159273 0.189786 0.440429
v -0.128101 0.201692 0.434677
v -0.104846 0.225019 0.436722
v -0.131131 0.347973 0.466333
v -0.162126 0.359569 0.472070
v -0.253276 0.348760 0.455643
v -0.265560 0.318378 0.463021
v -0.269815 0.248193 0.454178
v -0.232316 0.210060 0.457457
v -0.123771 0.247885 0.474422
v -0.120737 0.298027 0.479474
v -0.204584 0.360268 0.472134
v -0.155404 0.215621 0.470786
v -0.148020 0.305575 0.492936
v -0.251073 0.269591 0.479146
v -0.224236 0.248455 0.487145
v -0.204521 0.228245 0.482271
v -0.158798 0.240711 0.487312
v -0.172534 0.322687 0.493774
v -0.213502 0.334229 0.487216
v -0.230780 0.309918 0.488674
v -0.159806 0.264217 0.494884
v -0.196170 0.261307 0.496694
v -0.216782 0.294632 0.496233
v -0.183690 0.288335 0.500231
v 0.075267 0.307426 0.395329
v 0.087774 0.320687 0.430135
v 0.096295 0.355486 0.393579
v 0.121856 0.380616 0.391346
v 0.153895 0.396588 0.388544
v 0.191703 0.393822 0.429869
v 0.208259 0.400351 0.383695
v 0.224590 0.388687 0.426961
v 0.256261 0.379222 0.379583
v 0.281297 0.353565 0.377396
v 0.297210 0.321396 0.376004
v 0.302439 0.285884 0.375546
v 0.296476 0.250465 0.376068
v 0.279911 0.218646 0.377517
v 0.254348 0.193512 0.379756
v 0.222315 0.177546 0.382558
v 0.186917 0.172292 0.385651
v 0.151650 0.178277 0.388740
v 0.119936 0.194913 0.391513
v 0.086870 0.231546 0.394364
v 0.085252 0.252724 0.421475
v 0.085625 0.286792 0.439142
v 0.106878 0.349028 0.436711
v 0.135368 0.366495 0.451034
v 0.159401 0.387361 0.432143
v 0.253651 0.372438 0.423875
v 0.276919 0.349115 0.421825
v 0.291851 0.319718 0.420544
v 0.297011 0.287122 0.420096
v 0.291887 0.254520 0.420532
v 0.276979 0.225109 0.421836
v 0.240372 0.192755 0.426711
v 0.191984 0.181573 0.429262
v 0.161377 0.189786 0.440429
v 0.130207 0.201692 0.434680
v 0.106951 0.225020 0.436725
v 0.117491 0.325936 0.467699
v 0.164232 0.359569 0.472070
v 0.255381 0.348760 0.455643
v 0.267667 0.318380 0.463017
v 0.280106 0.274062 0.453465
v 0.256172 0.226163 0.455575
v 0.208754 0.201496 0.459694
v 0.111283 0.245934 0.461422
v 0.206688 0.360267 0.472135
v 0.157509 0.215621 0.470786
v 0.123047 0.274863 0.479461
v 0.148379 0.305031 0.492438
v 0.253815 0.293319 0.479224
v 0.249910 0.260637 0.478499
v 0.215822 0.230956 0.482419
v 0.160904 0.240712 0.487312
v 0.174638 0.322687 0.493774
v 0.220507 0.333807 0.486047
v 0.166215 0.260694 0.495399
v 0.213684 0.311178 0.494959
v 0.216445 0.269983 0.496045
v 0.185799 0.288335 0.500231
vt 0.060163 0.718729
vt 0.003003 0.505000
vt 0.086077 0.639474
vt 0.095002 0.212002
vt 0.280791 0.060413
vt 0.239549 0.149067
vt 0.360516 0.086046
vt 0.495000 0.003003
vt 0.702076 0.052654
vt 0.898997 0.203002
vt 0.760006 0.133659
vt 0.297908 0.947338
vt 0.149306 0.760709
vt 0.247043 0.856187
vt 0.063022 0.504499
vt 0.026004 0.352001
vt 0.112952 0.309430
vt 0.561679 0.073347
vt 0.829144 0.255329
vt 0.970997 0.341001
vt 0.913955 0.360512
vt 0.996997 0.495000
vt 0.936918 0.495503
vt 0.973997 0.647999
vt 0.887344 0.690256
vt 0.904997 0.787998
vt 0.796998 0.898998
vt 0.744427 0.828651
vt 0.658999 0.970997
vt 0.635652 0.902292
vt 0.505000 0.996997
vt 0.505000 0.936969
vt 0.370016 0.916946
vt 0.125347 0.446850
vt 0.195882 0.314992
vt 0.553157 0.125341
vt 0.685211 0.196149
vt 0.872632 0.434688
vt 0.839808 0.666266
vt 0.556375 0.857036
vt 0.344349 0.827010
vt 0.196240 0.661367
vt 0.338669 0.196227
vt 0.226231 0.577303
vt 0.424709 0.228047
vt 0.787460 0.399245
vt 0.769926 0.581436
vt 0.724862 0.715261
vt 0.500312 0.807142
vt 0.250820 0.406516
vt 0.593652 0.250637
vt 0.406524 0.749367
vt 0.584776 0.393741
vt 0.608399 0.647380
vt 0.427629 0.541395
vt 0.060163 0.718730
vt 0.074664 0.643334
vt 0.003003 0.505000
vt 0.095002 0.212002
vt 0.239549 0.149067
vt 0.280793 0.060413
vt 0.360516 0.086045
vt 0.495000 0.003003
vt 0.297909 0.947338
vt 0.232497 0.876505
vt 0.149312 0.760705
vt 0.063024 0.504499
vt 0.108642 0.377545
vt 0.026004 0.352001
vt 0.144055 0.247040
vt 0.495501 0.063533
vt 0.630496 0.083511
vt 0.647999 0.026004
vt 0.752971 0.143538
vt 0.787998 0.095003
vt 0.850957 0.239534
vt 0.898997 0.203002
vt 0.913967 0.360509
vt 0.970997 0.341001
vt 0.936961 0.495501
vt 0.996997 0.495000
vt 0.887336 0.690268
vt 0.973997 0.647999
vt 0.904997 0.787998
vt 0.760490 0.850486
vt 0.796998 0.898997
vt 0.635653 0.902292
vt 0.658999 0.970996
vt 0.505000 0.936965
vt 0.505000 0.996997
vt 0.370017 0.916940
vt 0.323063 0.850587
vt 0.127397 0.565278
vt 0.195883 0.314991
vt 0.553158 0.125343
vt 0.685234 0.196146
vt 0.834319 0.322580
vt 0.874437 0.553116
vt 0.771769 0.762918
vt 0.556376 0.857035
vt 0.338660 0.196233
vt 0.260727 0.747256
vt 0.223181 0.588577
vt 0.446808 0.217862
vt 0.725165 0.293716
vt 0.806271 0.444211
vt 0.750294 0.673389
vt 0.500314 0.807142
vt 0.250820 0.406519
vt 0.438057 0.747586
vt 0.495013 0.301732
vt 0.665402 0.520235
vt 0.427641 0.541392
vn 0.9658 0.1438 0.2157
vn 0.7663 0.5845 0.2667
vn 0.8314 0.3019 0.4664
vn 0.2511 0.9479 0.1962
vn -0.1846 0.9743 0.1288
vn -0.0018 0.9211 0.3893
vn -0.3439 0.8662 0.3624
vn -0.5896 0.7987 0.1200
vn -0.8755 0.4744 0.0914
vn -0.9937 0.0011 0.1122
vn -0.9268 0.2911 0.2374
vn 0.8623 -0.4486 0.2351
vn 0.8902 -0.0309 0.4546
vn 0.8523 -0.2685 0.4490
vn 0.7011 0.5718 0.4260
vn 0.5679 0.7773 0.2706
vn 0.3921 0.8198 0.4174
vn -0.6884 0.6485 0.3250
vn -0.8975 0.0095 0.4408
vn -0.9419 -0.3122 0.1236
vn -0.9215 -0.2791 0.2701
vn -0.7910 -0.5929 0.1513
vn -0.7624 -0.5724 0.3018
vn -0.6062 -0.7774 0.1681
vn -0.4587 -0.8242 0.3321
vn -0.2829 -0.9383 0.1991
vn -0.0185 -0.9687 0.2476
vn -0.0614 -0.8628 0.5019
vn 0.2836 -0.9261 0.2487
vn 0.2409 -0.8661 0.4380
vn 0.5745 -0.7801 0.2477
vn 0.5170 -0.7442 0.4229
vn 0.6896 -0.5692 0.4478
vn 0.4976 0.5046 0.7056
vn 0.1862 0.6340 0.7506
vn -0.5689 0.5469 0.6142
vn -0.6978 0.2638 0.6659
vn -0.7154 -0.3557 0.6014
vn -0.4199 -0.6514 0.6320
vn 0.2669 -0.6328 0.7268
vn 0.5638 -0.3242 0.7596
vn 0.5928 0.0791 0.8015
vn -0.1629 0.6604 0.7330
vn 0.3462 0.1588 0.9246
vn -0.2351 0.4169 0.8780
vn -0.5801 -0.1408 0.8023
vn -0.3560 -0.3399 0.8705
vn -0.1325 -0.5438 0.8287
vn 0.2139 -0.4100 0.8866
vn 0.1039 0.3385 0.9352
vn -0.4384 0.2118 0.8734
vn 0.2550 -0.1721 0.9515
vn -0.2556 0.0547 0.9652
vn -0.0827 -0.2358 0.9683
vn 0.0209 0.0271 0.9994
vn -0.9699 0.1342 0.2031
vn -0.8686 0.3109 0.3860
vn -0.7617 0.5915 0.2645
vn -0.2631 0.9432 0.2029
vn 0.0126 0.9211 0.3892
vn 0.1845 0.9744 0.1287
vn 0.3351 0.8690 0.3639
vn 0.5886 0.7973 0.1336
vn -0.8609 -0.4552 0.2273
vn -0.9622 -0.1881 0.1971
vn -0.8900 -0.0212 0.4554
vn -0.7052 0.5780 0.4106
vn -0.4729 0.6953 0.5413
vn -0.5507 0.7825 0.2904
vn -0.2723 0.8774 0.3949
vn 0.5822 0.7481 0.3184
vn 0.7865 0.5407 0.2983
vn 0.8128 0.5668 0.1345
vn 0.9100 0.2814 0.3046
vn 0.9483 0.2927 0.1231
vn 0.9568 0.0133 0.2904
vn 0.9929 -0.0104 0.1188
vn 0.9074 -0.2985 0.2959
vn 0.9420 -0.3120 0.1237
vn 0.7757 -0.5541 0.3020
vn 0.7909 -0.5929 0.1512
vn 0.4579 -0.8201 0.3432
vn 0.6059 -0.7776 0.1678
vn 0.2963 -0.9385 0.1774
vn 0.0370 -0.9345 0.3539
vn 0.0005 -0.9767 0.2145
vn -0.2282 -0.8596 0.4571
vn -0.2836 -0.9261 0.2487
vn -0.5158 -0.7466 0.4203
vn -0.5745 -0.7800 0.2482
vn -0.7042 -0.5641 0.4311
vn -0.6573 -0.3638 0.6599
vn -0.6119 0.3233 0.7218
vn -0.1933 0.6209 0.7597
vn 0.5668 0.5555 0.6084
vn 0.7026 0.2681 0.6592
vn 0.8053 -0.1182 0.5809
vn 0.5976 -0.5262 0.6050
vn 0.1708 -0.7445 0.6454
vn -0.2638 -0.6263 0.7336
vn 0.1540 0.6523 0.7422
vn -0.5745 -0.0938 0.8131
vn -0.3613 0.1659 0.9176
vn 0.2869 0.4171 0.8624
vn 0.5570 0.0641 0.8280
vn 0.5435 -0.2440 0.8032
vn 0.2224 -0.4903 0.8427
vn -0.2324 -0.4158 0.8793
vn -0.1113 0.3463 0.9315
vn -0.1796 -0.2217 0.9584
vn 0.2321 0.1908 0.9538
vn 0.2418 -0.1557 0.9578
vn -0.0244 0.0087 0.9997
usemtl None
s 1
f 1/1/1 2/2/2 3/3/3
f 5/4/4 6/5/5 7/6/6
f 6/5/5 8/7/7 7/6/6
f 6/5/5 9/8/8 8/7/7
f 10/9/9 12/10/10 11/11/11
f 20/12/12 1/1/1 22/13/13
f 20/12/12 22/13/13 21/14/14
f 1/1/1 3/3/3 22/13/13
f 3/3/3 2/2/2 23/15/15
f 2/2/2 4/16/16 24/17/17
f 2/2/2 24/17/17 23/15/15
f 4/16/16 5/4/4 24/17/17
f 5/4/4 7/6/6 24/17/17
f 8/7/7 9/8/8 25/18/18
f 9/8/8 10/9/9 25/18/18
f 10/9/9 11/11/11 25/18/18
f 11/11/11 12/10/10 26/19/19
f 12/10/10 13/20/20 27/21/21
f 12/10/10 27/21/21 26/19/19
f 13/20/20 14/22/22 28/23/23
f 13/20/20 28/23/23 27/21/21
f 14/22/22 15/24/24 29/25/25
f 14/22/22 29/25/25 28/23/23
f 15/24/24 16/26/26 29/25/25
f 16/26/26 17/27/27 30/28/28
f 16/26/26 30/28/28 29/25/25
f 17/27/27 18/29/29 31/30/30
f 17/27/27 31/30/30 30/28/28
f 18/29/29 19/31/31 32/32/32
f 18/29/29 32/32/32 31/30/30
f 19/31/31 20/12/12 33/33/33
f 19/31/31 33/33/33 32/32/32
f 20/12/12 21/14/14 33/33/33
f 3/3/3 23/15/15 34/34/34
f 23/15/15 24/17/17 34/34/34
f 24/17/17 35/35/35 34/34/34
f 24/17/17 7/6/6 35/35/35
f 8/7/7 25/18/18 36/36/36
f 25/18/18 11/11/11 37/37/37
f 25/18/18 37/37/37 36/36/36
f 11/11/11 26/19/19 37/37/37
f 26/19/19 27/21/21 38/38/38
f 27/21/21 28/23/23 38/38/38
f 28/23/23 29/25/25 39/39/39
f 28/23/23 39/39/39 38/38/38
f 29/25/25 30/28/28 39/39/39
f 31/30/30 32/32/32 43/40/40
f 32/32/32 33/33/33 40/41/41
f 32/32/32 40/41/41 43/40/40
f 33/33/33 21/14/14 40/41/41
f 3/3/3 34/34/34 41/42/42
f 35/35/35 7/6/6 42/43/43
f 7/6/6 8/7/7 42/43/43
f 8/7/7 36/36/36 42/43/43
f 30/28/28 31/30/30 43/40/40
f 21/14/14 22/13/13 41/42/42
f 21/14/14 41/42/42 40/41/41
f 22/13/13 3/3/3 41/42/42
f 41/42/42 34/34/34 44/44/44
f 34/34/34 35/35/35 44/44/44
f 42/43/43 36/36/36 50/45/45
f 36/36/36 37/37/37 50/45/45
f 37/37/37 26/19/19 45/46/46
f 26/19/19 38/38/38 45/46/46
f 38/38/38 39/39/39 46/47/47
f 38/38/38 46/47/47 45/46/46
f 39/39/39 47/48/48 46/47/47
f 39/39/39 30/28/28 47/48/48
f 30/28/28 43/40/40 47/48/48
f 43/40/40 40/41/41 48/49/49
f 44/44/44 35/35/35 49/50/50
f 35/35/35 42/43/43 50/45/45
f 35/35/35 50/45/45 49/50/50
f 50/45/45 37/37/37 51/51/51
f 37/37/37 45/46/46 51/51/51
f 47/48/48 43/40/40 48/49/49
f 48/49/49 40/41/41 52/52/52
f 40/41/41 41/42/42 44/44/44
f 40/41/41 44/44/44 52/52/52
f 51/51/51 45/46/46 54/53/53
f 45/46/46 46/47/47 54/53/53
f 47/48/48 53/54/54 46/47/47
f 47/48/48 48/49/49 53/54/54
f 48/49/49 52/52/52 53/54/54
f 44/44/44 49/50/50 55/55/55
f 49/50/50 50/45/45 54/53/53
f 49/50/50 54/53/53 55/55/55
f 50/45/45 51/51/51 54/53/53
f 46/47/47 53/54/54 54/53/53
f 53/54/54 52/52/52 55/55/55
f 52/52/52 44/44/44 55/55/55
f 54/53/53 53/54/54 55/55/55
f 56/56/56 57/57/57 58/58/58
f 60/59/59 61/60/60 62/61/61
f 62/61/61 61/60/60 63/62/62
f 62/61/61 63/62/62 64/63/63
f 75/64/64 76/65/65 77/66/66
f 75/64/64 77/66/66 56/56/56
f 56/56/56 77/66/66 57/57/57
f 57/57/57 78/67/67 58/58/58
f 58/58/58 78/67/67 79/68/68
f 58/58/58 79/68/68 59/69/69
f 59/69/69 79/68/68 80/70/70
f 59/69/69 80/70/70 60/59/59
f 60/59/59 80/70/70 61/60/60
f 63/62/62 81/71/71 64/63/63
f 64/63/63 81/71/71 82/72/72
f 64/63/63 82/72/72 65/73/73
f 65/73/73 82/72/72 83/74/74
f 65/73/73 83/74/74 66/75/75
f 66/75/75 83/74/74 84/76/76
f 66/75/75 84/76/76 67/77/77
f 67/77/77 84/76/76 85/78/78
f 67/77/77 85/78/78 68/79/79
f 68/79/79 85/78/78 86/80/80
f 68/79/79 86/80/80 69/81/81
f 69/81/81 86/80/80 87/82/82
f 69/81/81 87/82/82 70/83/83
f 70/83/83 87/82/82 71/84/84
f 71/84/84 87/82/82 88/85/85
f 71/84/84 88/85/85 72/86/86
f 72/86/86 88/85/85 89/87/87
f 72/86/86 89/87/87 73/88/88
f 73/88/88 89/87/87 90/89/89
f 73/88/88 90/89/89 74/90/90
f 74/90/90 90/89/89 91/91/91
f 74/90/90 91/91/91 75/64/64
f 75/64/64 91/91/91 76/65/65
f 91/91/91 99/92/92 76/65/65
f 76/65/65 99/92/92 77/66/66
f 57/57/57 92/93/93 78/67/67
f 78/67/67 92/93/93 79/68/68
f 79/68/68 93/94/94 80/70/70
f 80/70/70 93/94/94 61/60/60
f 63/62/62 94/95/95 81/71/71
f 81/71/71 94/95/95 82/72/72
f 82/72/72 94/95/95 95/96/96
f 82/72/72 95/96/96 83/74/74
f 83/74/74 95/96/96 96/97/97
f 83/74/74 96/97/97 84/76/76
f 84/76/76 96/97/97 85/78/78
f 85/78/78 96/97/97 97/98/98
f 85/78/78 97/98/98 86/80/80
f 86/80/80 97/98/98 87/82/82
f 87/82/82 97/98/98 98/99/99
f 87/82/82 98/99/99 88/85/85
f 88/85/85 98/99/99 89/87/87
f 89/87/87 101/100/100 90/89/89
f 90/89/89 101/100/100 99/92/92
f 90/89/89 99/92/92 91/91/91
f 77/66/66 92/93/93 57/57/57
f 93/94/94 100/101/101 61/60/60
f 61/60/60 100/101/101 63/62/62
f 63/62/62 100/101/101 94/95/95
f 98/99/99 101/100/100 89/87/87
f 99/92/92 102/102/102 77/66/66
f 77/66/66 102/102/102 92/93/93
f 92/93/93 103/103/103 93/94/94
f 92/93/93 93/94/94 79/68/68
f 100/101/101 109/104/104 94/95/95
f 94/95/95 109/104/104 95/96/96
f 95/96/96 104/105/105 96/97/97
f 96/97/97 104/105/105 105/106/106
f 96/97/97 105/106/106 97/98/98
f 97/98/98 105/106/106 106/107/107
f 97/98/98 106/107/107 98/99/99
f 98/99/99 106/107/107 101/100/100
f 101/100/100 107/108/108 99/92/92
f 99/92/92 107/108/108 102/102/102
f 102/102/102 103/103/103 92/93/93
f 103/103/103 108/109/109 93/94/94
f 93/94/94 108/109/109 109/104/104
f 93/94/94 109/104/104 100/101/101
f 95/96/96 109/104/104 104/105/105
f 106/107/107 107/108/108 101/100/100
f 107/108/108 110/110/110 102/102/102
f 102/102/102 110/110/110 103/103/103
f 108/109/109 111/111/111 109/104/104
f 109/104/104 111/111/111 104/105/105
f 104/105/105 111/111/111 112/112/112
f 104/105/105 112/112/112 105/106/106
f 105/106/106 112/112/112 106/107/107
f 106/107/107 112/112/112 110/110/110
f 106/107/107 110/110/110 107/108/108
f 103/103/103 113/113/113 108/109/109
f 108/109/109 113/113/113 111/111/111
f 110/110/110 112/112/112 113/113/113
f 110/110/110 113/113/113 103/103/103
f 111/111/111 113/113/113 112/112/112
