# Blender v2.79 (sub 0) OBJ File: ''
# www.blender.org
mtllib african_head_lod4.mtl
o head
v -0.005757 -0.107335 0.562977
v 0.164692 -0.140126 0.500084
v 0.372929 0.058272 0.421536
v 0.251734 -0.040876 -0.435171
v 0.413190 -0.008073 -0.109482
v 0.311343 -0.310155 0.201349
v 0.115508 -0.571471 0.155080
v 0.287968 0.272357 0.446875
v 0.318760 0.706116 0.349811
v 0.280091 0.345666 0.499182
v 0.115488 0.273184 0.488137
v 0.396400 0.320929 0.312756
v 0.084499 -0.152250 0.606813
v 0.209942 -0.147469 0.518674
v 0.163659 0.086259 0.544744
v 0.020248 0.773868 0.479559
v 0.013118 0.083232 0.691143
v 0.026960 0.035639 0.594754
v -0.006086 -0.073568 0.650154
v 0.058828 1.001240 0.095834
v -0.011047 0.995896 -0.274960
v 0.032762 -0.117108 0.605992
v 0.306777 -0.314093 -0.005012
v -0.122277 0.490724 -0.686973
v 0.127194 -0.371702 0.504430
v 0.320190 0.712350 -0.574235
v 0.330698 0.903616 -0.225635
v 0.457338 0.679077 -0.155995
v 0.100884 0.157398 -0.645288
v 0.470353 0.296965 -0.210570
v -0.038049 -0.422679 0.307145
v 0.330244 -0.288616 -0.357385
v -0.191181 0.804117 -0.539580
v -0.135277 -0.311699 -0.433162
v 0.465317 0.177673 -0.023978
v 0.528012 0.326853 -0.146775
v 0.500795 0.090934 -0.183580
v 0.460501 -0.013203 0.009991
v 0.001059 0.032680 0.367488
v 0.000934 -0.223660 0.356216
v -0.044094 -0.093994 0.257456
v 0.416280 -0.722188 -0.011529
v 0.170484 -0.815830 0.205744
v 0.662496 -0.596844 -0.277513
v 0.425229 -0.644882 -0.575683
v -0.185216 -0.731839 -0.624782
v -0.041663 -0.709143 0.176961
v -0.076768 -0.999723 0.287201
v 0.198972 -0.720968 -0.633141
v 0.229649 -0.933712 0.320022
v 0.511631 -0.845357 0.127832
v 0.625246 -0.805606 -0.048848
v -0.327257 0.026615 0.470477
v -0.230450 -0.041796 -0.462843
v -0.411697 -0.008316 -0.109120
v -0.296380 0.761578 0.339315
v -0.105838 0.447633 0.569010
v -0.281946 0.338036 0.494960
v -0.395067 -0.185317 0.140032
v -0.224429 -0.132120 0.520939
v -0.160333 -0.138024 0.503446
v -0.420983 0.212804 0.290230
v -0.118739 -0.157414 0.586960
v -0.010243 0.309088 0.569320
v -0.115287 0.274393 0.486826
v -0.133473 0.068183 0.559644
v -0.235104 0.253726 0.493223
v -0.305295 -0.315229 -0.005016
v -0.136580 -0.373810 0.488064
v -0.377974 0.880846 -0.232011
v -0.445813 0.479776 -0.443193
v -0.302845 0.282749 0.427314
v -0.353714 -0.314767 -0.325499
v -0.448093 0.121358 -0.025080
v -0.486144 0.314267 -0.054268
v -0.483916 0.283295 -0.186098
v -0.459134 -0.013162 0.010058
v -0.502005 0.082547 -0.175554
v -0.416637 -0.721228 -0.013795
v -0.170076 -0.816396 0.206543
v -0.662864 -0.597647 -0.277139
v -0.428589 -0.645666 -0.572504
v -0.302400 -0.911789 0.282363
v -0.511812 -0.845392 0.127809
v -0.624834 -0.805272 -0.047980
vt 0.808141 0.718848
vt 0.654539 0.442970
vt 0.793897 0.534375
vt 0.572957 0.360163
vt 0.559756 0.364804
vt 0.520002 0.339026
vt 0.546336 0.264242
vt 0.660795 0.270924
vt 0.782929 0.442205
vt 0.605664 0.604107
vt 0.506025 0.815229
vt 0.461621 0.673125
vt 0.815178 0.941086
vt 0.659653 0.924362
vt 0.797611 0.846737
vt 0.494631 0.588439
vt 0.618224 0.566456
vt 0.681739 0.595333
vt 0.479943 0.185990
vt 0.584782 0.116857
vt 0.501918 0.359203
vt 0.560563 0.476002
vt 0.905452 0.751446
vt 0.546757 0.858654
vt 0.640378 0.768687
vt 0.497079 0.384306
vt 0.513035 0.366670
vt 0.504407 0.461345
vt 0.741792 0.243048
vt 0.830491 0.415049
vt 0.999000 0.386861
vt 0.971898 0.547275
vt 0.924337 0.394749
vt 0.936000 0.877000
vt 0.988199 0.202133
vt 0.882029 0.195519
vt 0.856811 0.566287
vt 0.557656 0.568128
vt 0.509839 0.431539
vt 0.835009 0.564085
vt 0.837497 0.492213
vt 0.982826 0.668791
vt 0.544640 0.947676
vt 0.500162 0.942016
vt 0.505020 0.911107
vt 0.749718 0.067682
vt 0.834567 0.001757
vt 0.999000 0.002437
vt 0.908051 0.002404
vt 0.600992 0.037257
vt 0.462544 0.078662
vt 0.469714 0.001997
vt 0.958000 0.002000
vt 0.697000 0.002000
vt 0.591678 0.002063
vt 0.754820 0.002000
vt 0.390608 0.598497
vt 0.361060 0.787663
vt 0.302348 0.554408
vt 0.366660 0.450814
vt 0.286276 0.335852
vt 0.447115 0.263488
vt 0.217042 0.442293
vt 0.195173 0.816738
vt 0.186928 0.582476
vt 0.454114 0.451698
vt 0.350850 0.936541
vt 0.375149 0.569932
vt 0.468191 0.339118
vt 0.439542 0.364222
vt 0.397872 0.558611
vt 0.033743 0.666953
vt 0.088400 0.807800
vt 0.014000 0.778000
vt 0.258463 0.242601
vt 0.110863 0.642543
vt 0.426130 0.371086
vt 0.443532 0.566705
vt 0.169511 0.415023
vt 0.129255 0.196572
vt 0.078017 0.416292
vt 0.057000 0.197768
vt 0.149128 0.556036
vt 0.187639 0.939532
vt 0.207606 0.509074
vt 0.164614 0.490101
vt 0.016414 0.551651
vt 0.463546 0.973272
vt 0.493989 0.955813
vt 0.500114 0.970000
vt 0.165467 0.001757
vt 0.249884 0.068031
vt 0.091973 0.002283
vt 0.038526 0.002043
vt 0.399208 0.037240
vt 0.379527 0.002116
vt 0.303000 0.002000
vt 0.245345 0.002000
vt 0.514145 0.995338
vt 0.570460 0.962317
vt 0.610477 0.965725
vt 0.589305 0.994211
vt 0.384689 0.969550
vt 0.436124 0.967359
vt 0.410185 0.995233
vt 0.403093 0.954356
vn 0.9601 0.2791 -0.0158
vn 0.8204 -0.0675 0.5677
vn 0.9685 0.0398 0.2459
vn 0.6097 -0.1622 0.7759
vn -0.9791 0.1940 0.0615
vn 0.2669 0.2984 0.9164
vn 0.3752 -0.7273 0.5747
vn 0.8028 -0.5451 0.2416
vn 0.9578 -0.2869 0.0178
vn 0.5394 -0.1350 0.8312
vn 0.0515 0.6017 0.7971
vn -0.1989 0.0822 0.9766
vn -0.0186 0.9585 -0.2845
vn 0.0979 0.9583 0.2685
vn 0.6309 0.7644 -0.1329
vn -0.0387 0.1239 0.9915
vn 0.5903 -0.0905 0.8021
vn 0.9428 0.0453 0.3302
vn -0.2060 -0.8608 0.4654
vn 0.4176 -0.1144 0.9014
vn -0.0311 0.9761 0.2152
vn 0.4943 0.0924 0.8644
vn 0.5819 0.3741 -0.7221
vn 0.7080 0.4683 0.5286
vn 0.0040 -0.1737 0.9848
vn 0.0495 -0.9305 0.3629
vn 0.0318 -0.2279 0.9732
vn 0.9665 -0.2151 0.1398
vn 0.8100 -0.4448 -0.3822
vn -0.5135 -0.2556 -0.8191
vn 0.2233 -0.3527 -0.9087
vn 0.5810 -0.2551 -0.7729
vn -0.3337 0.6030 -0.7246
vn -0.0973 0.1726 -0.9802
vn 0.7486 0.2839 -0.5992
vn 0.9024 0.0387 -0.4291
vn 0.4016 -0.1300 0.9066
vn 0.2561 -0.3319 0.9079
vn 0.4822 0.8685 0.1146
vn 0.5530 -0.3951 -0.7335
vn -0.2423 0.0682 -0.9678
vn -0.0968 0.9195 0.3811
vn 0.5356 0.5005 0.6802
vn 0.5948 0.7414 0.3107
vn 0.0071 0.4537 -0.8911
vn 0.2640 0.5673 -0.7800
vn 0.1508 0.5075 0.8483
vn -0.0897 0.1564 0.9836
vn -0.0008 0.4513 0.8924
vn -0.0351 0.6666 -0.7446
vn 0.1643 0.9131 0.3732
vn -0.0017 0.6956 0.7184
vn 0.3386 0.7191 0.6069
vn -0.5518 -0.2259 0.8028
vn -0.6626 0.5522 0.5060
vn -0.9258 0.0292 0.3769
vn -0.7426 -0.0581 0.6672
vn -0.8680 -0.4695 0.1614
vn -0.4270 -0.7353 0.5263
vn -0.9609 -0.2765 -0.0138
vn -0.7328 0.6701 -0.1181
vn -0.9888 0.0986 0.1119
vn -0.4793 0.1076 0.8710
vn -0.5209 -0.4110 0.7481
vn -0.3428 0.2731 0.8988
vn 0.8303 0.2880 0.4771
vn -0.2624 0.3833 0.8856
vn -0.9222 -0.2502 0.2950
vn -0.8658 0.0445 -0.4984
vn -0.6138 -0.2090 0.7613
vn -0.4449 0.0441 0.8945
vn -0.8128 -0.4354 -0.3871
vn -0.8598 0.3272 -0.3920
vn -0.9686 -0.0637 -0.2401
vn -0.9231 -0.1300 -0.3618
vn -0.5866 -0.3127 -0.7471
vn 0.1977 -0.0677 0.9779
vn -0.0765 -0.9597 0.2703
vn -0.6004 0.7420 0.2982
vn -0.5344 0.4983 0.6827
vn -0.3305 0.5333 -0.7787
vn -0.1506 0.4776 0.8656
vn -0.0690 0.6782 0.7317
vn -0.1627 0.9150 0.3693
vn -0.3343 0.7218 0.6060
usemtl None
s 1
f 28/1/1 3/2/2 35/3/3
f 14/4/4 2/5/5 13/6/6
f 3/2/2 25/7/7 6/8/8
f 3/2/2 6/8/8 38/9/9
f 10/10/10 16/11/11 57/12/12
f 21/13/13 20/14/14 27/15/15
f 57/12/12 64/16/16 10/10/10
f 10/10/10 8/17/17 12/18/18
f 3/2/2 28/1/1 12/18/18
f 31/19/19 7/20/20 6/8/8
f 13/6/6 2/5/5 1/21/21
f 15/22/22 14/4/4 3/2/2
f 26/23/23 27/15/15 28/1/1
f 21/13/13 27/15/15 26/23/23
f 20/14/14 16/24/11 9/25/24
f 20/14/14 9/25/24 27/15/15
f 14/4/4 19/26/25 22/27/26
f 64/16/16 17/28/27 15/22/22
f 23/29/28 5/30/29 38/9/9
f 54/31/30 29/32/31 4/33/32
f 21/13/13 26/23/23 33/34/33
f 4/33/32 34/35/34 54/31/30
f 5/30/29 23/29/28 32/36/35
f 32/36/35 4/33/32 5/30/29
f 30/37/36 26/23/23 28/1/1
f 35/3/3 30/37/36 28/1/1
f 10/10/10 9/25/24 16/11/11
f 25/7/7 3/2/2 14/4/4
f 12/18/18 9/25/24 10/10/10
f 14/4/4 13/6/6 25/7/7
f 64/16/16 11/38/37 10/10/10
f 8/17/17 3/2/2 12/18/18
f 8/17/17 11/38/37 15/22/22
f 11/38/37 64/16/16 15/22/22
f 18/39/38 15/22/22 17/28/27
f 18/39/38 14/4/4 15/22/22
f 14/4/4 18/39/38 19/26/25
f 14/4/4 22/27/26 2/5/5
f 23/29/28 6/8/8 7/20/20
f 26/23/23 4/33/32 29/32/31
f 32/36/35 34/35/34 4/33/32
f 12/18/18 28/1/1 9/25/24
f 30/37/36 35/3/3 36/40/39
f 30/37/36 36/40/39 37/41/40
f 37/41/40 38/9/9 5/30/29
f 35/3/3 38/9/9 37/41/40
f 5/30/29 30/37/36 37/41/40
f 4/33/32 30/37/36 5/30/29
f 31/19/19 6/8/8 25/7/7
f 3/2/2 8/17/17 15/22/22
f 4/33/32 26/23/23 30/37/36
f 29/32/31 24/42/41 26/23/23
f 38/9/9 35/3/3 3/2/2
f 9/25/24 28/1/1 27/15/15
f 23/29/28 38/9/9 6/8/8
f 37/41/40 36/40/39 35/3/3
f 2/43/5 40/44/42 1/45/21
f 32/36/35 42/46/43 44/47/44
f 46/48/45 34/35/34 32/36/35
f 46/48/45 32/36/35 45/49/46
f 43/50/47 42/46/43 23/29/28
f 43/50/47 23/29/28 7/20/20
f 47/51/48 43/50/47 7/20/20
f 23/29/28 42/46/43 32/36/35
f 43/50/47 47/51/48 48/52/49
f 47/51/48 7/20/20 31/19/19
f 46/48/45 45/49/46 49/53/50
f 32/36/35 44/47/44 45/49/46
f 51/54/51 43/50/47 50/55/52
f 44/47/44 42/46/43 52/56/53
f 52/56/53 42/46/43 43/50/47
f 52/56/53 43/50/47 51/54/51
f 50/55/52 43/50/47 48/52/49
f 58/57/54 56/58/55 62/59/56
f 56/58/55 58/57/54 57/12/12
f 56/58/55 57/12/12 16/11/11
f 53/60/57 62/59/56 59/61/58
f 53/60/57 59/61/58 69/62/59
f 62/59/56 77/63/60 59/61/58
f 70/64/61 75/65/62 56/58/55
f 66/66/63 19/26/25 18/39/38
f 56/58/55 20/67/14 70/64/61
f 58/57/54 62/59/56 72/68/64
f 63/69/65 1/21/21 61/70/66
f 53/60/57 67/71/67 62/59/56
f 24/72/41 33/73/33 26/74/23
f 31/19/19 69/62/59 59/61/58
f 31/19/19 59/61/58 68/75/68
f 64/16/16 53/60/57 66/66/63
f 64/16/16 66/66/63 17/28/27
f 1/21/21 63/69/65 13/6/6
f 17/28/27 66/66/63 18/39/38
f 75/65/62 70/64/61 71/76/69
f 69/62/59 31/19/19 25/7/7
f 69/62/59 63/69/65 60/77/70
f 60/77/70 61/70/66 19/26/25
f 19/26/25 61/70/66 22/27/26
f 69/62/59 60/77/70 53/60/57
f 61/70/66 60/77/70 63/69/65
f 65/78/71 53/60/57 64/16/16
f 58/57/54 65/78/71 57/12/12
f 68/75/68 77/63/60 55/79/72
f 55/79/72 73/80/73 68/75/68
f 73/80/73 55/79/72 54/81/30
f 54/81/30 34/82/34 73/80/73
f 75/65/62 71/76/69 76/83/74
f 67/71/67 72/68/64 62/59/56
f 64/16/16 57/12/12 65/78/71
f 63/69/65 69/62/59 25/7/7
f 63/69/65 25/7/7 13/6/6
f 66/66/63 60/77/70 19/26/25
f 21/84/13 70/64/61 20/67/14
f 56/58/55 16/11/11 20/67/14
f 68/75/68 47/51/48 31/19/19
f 71/76/69 24/72/41 54/81/30
f 71/76/69 70/64/61 33/73/33
f 71/76/69 33/73/33 24/72/41
f 62/59/56 56/58/55 75/65/62
f 70/64/61 21/84/13 33/73/33
f 66/66/63 53/60/57 60/77/70
f 77/63/60 75/65/62 74/85/75
f 78/86/76 55/79/72 77/63/60
f 74/85/75 78/86/76 77/63/60
f 75/65/62 76/83/74 78/86/76
f 55/79/72 78/86/76 76/83/74
f 54/81/30 55/79/72 76/83/74
f 53/60/57 65/78/71 67/71/67
f 29/87/31 54/81/30 24/72/41
f 76/83/74 71/76/69 54/81/30
f 77/63/60 62/59/56 75/65/62
f 61/88/66 41/89/77 39/90/78
f 61/88/66 1/45/21 40/44/42
f 68/75/68 59/61/58 77/63/60
f 73/80/73 81/91/79 79/92/80
f 82/93/81 34/82/34 46/94/45
f 73/80/73 34/82/34 82/93/81
f 80/95/82 68/75/68 79/92/80
f 80/95/82 47/51/48 68/75/68
f 68/75/68 73/80/73 79/92/80
f 80/95/82 48/52/49 47/51/48
f 73/80/73 82/93/81 81/91/79
f 83/96/83 48/52/49 80/95/82
f 84/97/84 83/96/83 80/95/82
f 81/91/79 85/98/85 79/92/80
f 85/98/85 84/97/84 80/95/82
f 85/98/85 80/95/82 79/92/80
f 39/90/78 2/43/5 22/99/26
f 11/100/37 8/101/17 10/102/10
f 41/89/77 40/44/42 2/43/5
f 41/89/77 2/43/5 39/90/78
f 61/88/66 39/90/78 22/99/26
f 72/103/64 65/104/71 58/105/54
f 65/104/71 72/103/64 67/106/67
f 78/86/76 74/85/75 75/65/62
f 61/88/66 40/44/42 41/89/77
