# Blender v2.79 (sub 0) OBJ File: ''
# www.blender.org
mtllib african_head_lod5.mtl
o head
v 0.372929 0.058272 0.421536
v 0.275099 -0.201640 -0.347690
v 0.286242 -0.355756 0.078342
v -0.000941 -0.711352 0.196514
v 0.288011 0.291797 0.470055
v 0.349054 0.638110 0.349250
v 0.115488 0.273184 0.488137
v 0.161780 -0.146127 0.542865
v 0.013118 0.083232 0.691143
v 0.095587 0.058955 0.587932
v 0.000817 -0.108891 0.641485
v 0.029932 1.044080 -0.087432
v -0.138633 0.675604 -0.665435
v 0.127194 -0.371702 0.504430
v 0.320190 0.712350 -0.574235
v 0.425418 0.834603 -0.190088
v 0.100884 0.157398 -0.645288
v -0.133069 -0.386544 0.397631
v 0.493989 0.296507 -0.118832
v 0.457684 -0.015050 -0.053632
v -0.027141 -0.103814 0.295378
v 0.242530 -0.933900 0.307623
v 0.662496 -0.596844 -0.277513
v 0.294488 -0.705141 -0.619687
v -0.190864 -0.947692 0.327474
v 0.610398 -0.835300 -0.018564
v -0.230450 -0.041796 -0.462843
v -0.173244 0.803497 0.462207
v -0.283899 0.286948 0.469169
v -0.377023 0.106885 0.419895
v -0.167773 -0.137046 0.542266
v -0.008170 0.324028 0.576320
v -0.115287 0.274393 0.486826
v -0.133473 0.068183 0.559644
v -0.305295 -0.315229 -0.005016
v -0.450834 0.802920 -0.352921
v -0.296751 -0.304436 -0.407590
v -0.460416 -0.005726 0.009123
v -0.500304 0.322453 -0.142209
v -0.447182 0.033517 -0.126518
v -0.673549 -0.710320 -0.095105
v -0.263320 -0.723222 -0.623898
v -0.401094 -0.881462 0.237249
vt 0.802036 0.792990
vt 0.654539 0.442970
vt 0.830632 0.558007
vt 0.546336 0.264242
vt 0.709593 0.254129
vt 0.801966 0.444399
vt 0.614171 0.578607
vt 0.429561 0.800689
vt 0.492453 0.594027
vt 0.647964 0.736894
vt 0.459805 0.233530
vt 0.478243 0.083567
vt 0.533124 0.451950
vt 0.549954 0.355951
vt 0.735826 0.932553
vt 0.905452 0.751446
vt 0.546757 0.858654
vt 0.504407 0.461345
vt 0.999000 0.386861
vt 0.971898 0.547275
vt 0.896472 0.263534
vt 0.936000 0.877000
vt 0.988199 0.202133
vt 0.557656 0.568128
vt 0.503601 0.377098
vt 0.982826 0.668791
vt 0.544640 0.947676
vt 0.497678 0.955677
vt 0.469561 0.964257
vt 0.594358 0.004386
vt 0.834567 0.001757
vt 0.999000 0.002437
vt 0.938455 0.002158
vt 0.435834 0.015294
vt 0.744424 0.002000
vt 0.386345 0.573322
vt 0.342332 0.490002
vt 0.220318 0.446755
vt 0.170397 0.765547
vt 0.163625 0.566176
vt 0.454114 0.451698
vt 0.270913 0.938006
vt 0.258463 0.242601
vt 0.445324 0.360994
vt 0.443532 0.566705
vt 0.167592 0.444446
vt 0.103293 0.197002
vt 0.078017 0.416292
vt 0.061027 0.737261
vt 0.016414 0.551651
vt 0.218711 0.001919
vt 0.053775 0.002111
vt 0.348074 0.002068
vt 0.514145 0.995338
vn 0.8019 0.5943 -0.0618
vn 0.8333 -0.1173 0.5402
vn 0.9950 -0.0170 -0.0988
vn 0.3028 -0.7173 0.6275
vn 0.9081 -0.3491 0.2313
vn 0.9575 -0.2758 -0.0843
vn 0.4910 0.1495 0.8583
vn -0.3315 0.6190 0.7120
vn 0.0404 0.2099 0.9769
vn 0.7042 0.4153 0.5758
vn -0.4672 -0.6734 0.5730
vn -0.0100 0.2408 0.9705
vn 0.4458 0.0262 0.8948
vn 0.3982 -0.2236 0.8896
vn 0.0421 0.9990 0.0154
vn 0.5742 0.4015 -0.7135
vn 0.0881 -0.3097 0.9467
vn -0.4795 -0.2341 -0.8457
vn 0.1953 -0.3058 -0.9319
vn 0.7308 0.0084 -0.6825
vn -0.2801 0.3574 -0.8909
vn -0.6783 0.1940 -0.7087
vn 0.3113 -0.1463 0.9390
vn -0.0208 -0.5004 0.8655
vn 0.0704 -0.1029 0.9922
vn -0.4868 -0.3372 0.8058
vn 0.2816 0.4799 0.8309
vn 0.6624 0.7111 0.2358
vn -0.3462 0.4142 -0.8418
vn 0.2288 0.4695 -0.8528
vn -0.1688 0.5828 0.7949
vn 0.4172 0.6254 0.6594
vn -0.4453 -0.0219 0.8951
vn -0.8194 -0.0573 0.5704
vn -0.9538 -0.2936 0.0632
vn -0.7908 0.5217 -0.3201
vn -0.9940 0.0070 -0.1096
vn -0.4771 0.0585 0.8769
vn -0.9300 -0.3322 0.1575
vn -0.5738 0.0148 0.8189
vn -0.9271 -0.2354 -0.2917
vn -0.4777 0.7942 0.3756
vn 0.1337 0.9214 0.3649
usemtl None
s 1
f 16/1/1 1/2/2 19/3/3
f 1/2/2 14/4/4 3/5/5
f 1/2/2 3/5/5 20/6/6
f 5/7/7 28/8/8 32/9/9
f 1/2/2 16/1/1 6/10/10
f 18/11/11 4/12/12 3/5/5
f 10/13/13 8/14/14 1/2/2
f 12/15/15 16/1/1 15/16/16
f 12/15/15 28/17/8 6/10/10
f 12/15/15 6/10/10 16/1/1
f 32/9/9 9/18/17 10/13/13
f 27/19/18 17/20/19 2/21/20
f 12/15/15 15/16/16 13/22/21
f 2/21/20 37/23/22 27/19/18
f 20/6/6 3/5/5 2/21/20
f 19/3/3 15/16/16 16/1/1
f 5/7/7 6/10/10 28/8/8
f 14/4/4 1/2/2 8/14/14
f 32/9/9 7/24/23 5/7/7
f 5/7/7 1/2/2 6/10/10
f 5/7/7 7/24/23 10/13/13
f 7/24/23 32/9/9 10/13/13
f 8/14/14 10/13/13 11/25/24
f 15/16/16 2/21/20 17/20/19
f 2/21/20 19/3/3 20/6/6
f 18/11/11 3/5/5 14/4/4
f 1/2/2 5/7/7 10/13/13
f 2/21/20 15/16/16 19/3/3
f 17/20/19 13/26/21 15/16/16
f 20/6/6 19/3/3 1/2/2
f 8/27/14 21/28/25 31/29/26
f 2/21/20 22/30/27 23/31/28
f 42/32/29 37/23/22 2/21/20
f 42/32/29 2/21/20 24/33/30
f 22/30/27 3/5/5 4/12/12
f 3/5/5 22/30/27 2/21/20
f 22/30/27 4/12/12 25/34/31
f 2/21/20 23/31/28 24/33/30
f 23/31/28 22/30/27 26/35/32
f 29/36/33 28/8/8 30/37/34
f 28/8/8 29/36/33 32/9/9
f 30/37/34 38/38/35 18/11/11
f 36/39/36 39/40/37 28/8/8
f 34/41/38 11/25/24 10/13/13
f 28/8/8 12/42/15 36/39/36
f 18/11/11 38/38/35 35/43/39
f 32/9/9 30/37/34 34/41/38
f 32/9/9 34/41/38 9/18/17
f 9/18/17 34/41/38 10/13/13
f 18/11/11 31/44/26 30/37/34
f 33/45/40 30/37/34 32/9/9
f 29/36/33 33/45/40 32/9/9
f 35/43/39 38/38/35 40/46/41
f 40/46/41 37/47/22 35/43/39
f 37/47/22 40/46/41 27/48/18
f 31/44/26 18/11/11 14/4/4
f 31/44/26 14/4/4 8/14/14
f 34/41/38 31/44/26 11/25/24
f 35/43/39 4/12/12 18/11/11
f 36/39/36 13/49/21 27/48/18
f 30/37/34 28/8/8 39/40/37
f 36/39/36 12/42/15 13/49/21
f 34/41/38 30/37/34 31/44/26
f 27/48/18 40/46/41 39/40/37
f 30/37/34 33/45/40 29/36/33
f 17/50/19 27/48/18 13/49/21
f 39/40/37 36/39/36 27/48/18
f 38/38/35 30/37/34 39/40/37
f 37/47/22 41/51/42 25/34/31
f 25/34/31 4/12/12 35/43/39
f 35/43/39 37/47/22 25/34/31
f 37/47/22 42/52/29 41/51/42
f 41/51/42 43/53/43 25/34/31
f 21/28/25 8/27/14 11/54/24
f 31/29/26 21/28/25 11/54/24
f 40/46/41 38/38/35 39/40/37
