# Blender v2.79 (sub 0) OBJ File: ''
# www.blender.org
mtllib african_head_eye_inner_lod4.mtl
o eyeInner
v -0.095714 0.368989 0.393068
v -0.083786 0.303567 0.439650
v -0.230450 0.395954 0.381562
v -0.206348 0.393606 0.428924
v -0.299450 0.322562 0.375672
v -0.288387 0.233008 0.376585
v -0.220825 0.173998 0.382482
v -0.104746 0.199091 0.392489
v -0.135331 0.366256 0.458329
v -0.283040 0.333514 0.442019
v -0.281228 0.270451 0.459973
v -0.209441 0.186015 0.446501
v -0.115122 0.226327 0.462291
v -0.144859 0.309653 0.493255
v -0.216240 0.326227 0.493347
v -0.188388 0.253389 0.499562
v 0.097818 0.368988 0.393068
v 0.092327 0.317495 0.449167
v 0.208452 0.393606 0.428924
v 0.251522 0.388425 0.379785
v 0.307247 0.266320 0.375071
v 0.222931 0.173999 0.382482
v 0.097227 0.203902 0.393626
v 0.169130 0.375732 0.463980
v 0.272940 0.343879 0.446462
v 0.291013 0.258764 0.435904
v 0.234037 0.207680 0.462835
v 0.175139 0.184790 0.438261
v 0.137982 0.244367 0.485874
v 0.186429 0.318388 0.500953
v 0.222995 0.280637 0.498566
vt 0.046922 0.458575
vt 0.378924 0.034113
vt 0.299652 0.117755
vt 0.454439 0.967759
vt 0.117871 0.700436
vt 0.395915 0.873207
vt 0.136896 0.370233
vt 0.680234 0.150556
vt 0.777439 0.110193
vt 0.984215 0.419295
vt 0.817808 0.368612
vt 0.891660 0.779055
vt 0.783847 0.767163
vt 0.224104 0.553826
vt 0.482951 0.272961
vt 0.580933 0.663948
vt 0.046922 0.458579
vt 0.299652 0.117754
vt 0.462901 0.031892
vt 0.478528 0.960787
vt 0.110492 0.635056
vt 0.199764 0.290818
vt 0.629856 0.137049
vt 0.914726 0.285383
vt 0.878349 0.350412
vt 0.820451 0.669402
vt 0.891662 0.779052
vt 0.689445 0.879969
vt 0.411543 0.802683
vt 0.346002 0.395600
vt 0.636430 0.476228
vn 0.7258 0.6610 0.1908
vn -0.3731 0.9161 0.1468
vn -0.1198 0.9237 0.3639
vn 0.6644 -0.7108 0.2307
vn 0.9506 0.0739 0.3015
vn 0.5972 -0.5056 0.6226
vn 0.3913 0.6966 0.6014
vn -0.7758 0.4404 0.4519
vn -0.9502 0.2767 0.1433
vn -0.8443 -0.4709 0.2557
vn -0.7689 -0.2199 0.6004
vn -0.3107 -0.9226 0.2289
vn -0.2014 -0.8399 0.5041
vn 0.3730 0.1820 0.9098
vn -0.2541 0.3615 0.8971
vn -0.0451 -0.3105 0.9495
vn -0.7116 0.6680 0.2179
vn 0.1184 0.9551 0.2716
vn 0.5450 0.8334 0.0923
vn -0.7190 -0.6061 0.3401
vn -0.8584 0.1854 0.4784
vn -0.1738 0.7474 0.6412
vn 0.7323 0.4628 0.4995
vn 0.9697 -0.1751 0.1702
vn 0.8565 -0.2932 0.4249
vn 0.4153 -0.6629 0.6229
vn 0.3578 -0.9124 0.1987
vn -0.1583 -0.8936 0.4201
vn -0.4447 -0.3573 0.8213
vn -0.0375 0.2907 0.9561
vn 0.3395 -0.0774 0.9374
usemtl None
s 1
f 1/1/1 3/2/2 4/3/3
f 8/4/4 1/1/1 2/5/5
f 8/4/4 2/5/5 13/6/6
f 2/5/5 1/1/1 9/7/7
f 1/1/1 4/3/3 9/7/7
f 4/3/3 3/2/2 10/8/8
f 3/2/2 5/9/9 10/8/8
f 5/9/9 6/10/10 11/11/11
f 5/9/9 11/11/11 10/8/8
f 6/10/10 7/12/12 12/13/13
f 6/10/10 12/13/13 11/11/11
f 7/12/12 8/4/4 12/13/13
f 8/4/4 13/6/6 12/13/13
f 2/5/5 9/7/7 14/14/14
f 9/7/7 4/3/3 15/15/15
f 4/3/3 10/8/8 15/15/15
f 13/6/6 2/5/5 14/14/14
f 10/8/8 11/11/11 15/15/15
f 11/11/11 12/13/13 16/16/16
f 12/13/13 13/6/6 16/16/16
f 9/7/7 15/15/15 14/14/14
f 13/6/6 14/14/14 16/16/16
f 11/11/11 16/16/16 15/15/15
f 14/14/14 15/15/15 16/16/16
f 17/17/17 19/18/18 20/19/19
f 23/20/20 18/21/21 17/17/17
f 17/17/17 18/21/21 24/22/22
f 17/17/17 24/22/22 19/18/18
f 19/18/18 25/23/23 20/19/19
f 20/19/19 25/23/23 21/24/24
f 21/24/24 25/23/23 26/25/25
f 21/24/24 26/25/25 27/26/26
f 21/24/24 27/26/26 22/27/27
f 22/27/27 27/26/26 28/28/28
f 22/27/27 28/28/28 23/20/20
f 23/20/20 29/29/29 18/21/21
f 28/28/28 29/29/29 23/20/20
f 19/18/18 24/22/22 25/23/23
f 27/26/26 29/29/29 28/28/28
f 18/21/21 30/30/30 24/22/22
f 24/22/22 30/30/30 25/23/23
f 25/23/23 31/31/31 26/25/25
f 26/25/25 31/31/31 27/26/26
f 29/29/29 30/30/30 18/21/21
f 25/23/23 30/30/30 31/31/31
f 27/26/26 31/31/31 29/29/29
f 29/29/29 31/31/31 30/30/30
