# Blender v2.79 (sub 0) OBJ File: ''
# www.blender.org
mtllib african_head_lod3.mtl
o head
v -0.067628 -0.116220 0.581538
v 0.001358 -0.103264 0.563069
v 0.156469 -0.141967 0.517020
v 0.165158 -0.134812 0.477574
v 0.159013 -0.370422 0.443499
v 0.323243 0.003708 0.465999
v 0.309504 -0.031099 -0.342662
v 0.413190 -0.008073 -0.109482
v 0.151172 -0.382219 0.257332
v 0.137610 -0.485870 0.169371
v 0.325455 0.374085 0.450150
v 0.299081 0.279085 0.428131
v 0.293412 0.662700 0.399422
v 0.193201 0.426026 0.540243
v 0.215554 0.317654 0.508566
v 0.118131 0.270877 0.488180
v 0.040062 0.070198 0.643537
v 0.421592 0.108557 0.278669
v 0.396400 0.320929 0.312756
v 0.208247 -0.207509 0.499680
v 0.065233 -0.140103 0.623539
v 0.095562 -0.222281 0.571010
v 0.179686 -0.103926 0.543679
v 0.153478 0.118434 0.539700
v 0.118057 0.265774 0.493027
v 0.394979 -0.186157 0.128693
v 0.083240 0.846140 0.378897
v 0.337272 0.774914 0.216314
v -0.051832 0.665102 0.532639
v 0.022810 0.138201 0.669434
v 0.095947 0.055544 0.568826
v -0.003758 0.018338 0.595186
v 0.021371 -0.064169 0.639664
v 0.200461 0.954742 0.067202
v -0.011047 0.995896 -0.274960
v -0.050555 0.991507 0.092944
v 0.071505 -0.121828 0.594476
v -0.003755 0.322854 0.565819
v 0.311241 -0.274345 0.015686
v 0.064668 0.490910 -0.677401
v 0.184913 0.785445 -0.557938
v 0.066459 -0.353031 0.540520
v 0.146701 -0.042830 -0.476294
v 0.131152 0.086440 0.600297
v 0.245031 0.257904 0.486462
v 0.349444 0.784869 -0.430467
v 0.330698 0.903616 -0.225635
v 0.457338 0.679077 -0.155995
v 0.198052 0.177381 -0.610735
v 0.346078 0.196985 -0.483078
v 0.463110 0.439973 -0.354265
v -0.070442 0.176059 -0.638406
v 0.337245 0.497970 -0.585265
v -0.001631 -0.412714 0.311958
v 0.253789 0.343196 0.466010
v 0.355070 -0.317013 -0.326190
v 0.340623 -0.441407 -0.094615
v -0.191181 0.804117 -0.539580
v -0.007418 -0.315203 -0.434752
v 0.457337 0.271665 -0.203584
v 0.481659 0.197393 -0.017388
v 0.463085 0.287936 0.000350
v 0.513297 0.321318 -0.083160
v 0.528847 0.279089 -0.190125
v 0.500795 0.090934 -0.183580
v 0.484518 -0.033014 -0.027232
v 0.462252 0.048585 0.014431
v 0.429217 -0.022153 0.022797
v 0.437034 0.095249 -0.037992
v 0.165324 -0.172938 0.455177
v -0.066318 -0.179508 0.497660
v 0.001059 0.032680 0.367488
v 0.000934 -0.223660 0.356216
v 0.116498 0.298254 0.446806
v -0.044094 -0.093994 0.257456
v 0.210264 -0.315657 -0.409125
v 0.109220 -0.667076 0.165866
v 0.371302 -0.628963 -0.039906
v 0.497950 -0.739295 -0.043288
v 0.136104 -0.829000 0.216503
v 0.660859 -0.641489 -0.236011
v 0.300243 -0.764021 0.084032
v 0.425229 -0.644882 -0.575683
v -0.185216 -0.731839 -0.624782
v 0.001713 -0.826883 0.163830
v -0.076768 -0.999723 0.287201
v 0.198972 -0.720968 -0.633141
v 0.608654 -0.568839 -0.416318
v 0.303011 -0.911742 0.282215
v 0.117382 -0.973645 0.306766
v 0.511631 -0.845357 0.127832
v 0.656371 -0.718624 -0.109224
v 0.610273 -0.786562 0.019789
v -0.165304 -0.135058 0.479907
v -0.157631 -0.371269 0.446678
v -0.367127 0.046207 0.404176
v -0.305912 -0.033862 -0.343833
v -0.411697 -0.008316 -0.109120
v -0.442866 0.127714 0.183838
v -0.149636 -0.382493 0.258544
v -0.132889 -0.492612 0.172537
v -0.315196 0.389332 0.466683
v -0.310239 0.602830 0.396432
v -0.181957 0.424116 0.542753
v -0.229654 0.321174 0.506892
v -0.048971 0.090307 0.666204
v -0.395067 -0.185317 0.140032
v -0.225660 -0.174832 0.500131
v -0.160151 -0.141703 0.518390
v -0.401954 0.301598 0.312298
v -0.266734 0.041761 0.504413
v -0.139046 -0.206884 0.560775
v -0.092210 -0.138136 0.606190
v -0.182708 -0.097534 0.545675
v -0.053279 0.221786 0.586579
v -0.151714 0.083348 0.534165
v -0.113215 0.272676 0.494822
v -0.183221 0.834561 0.334149
v -0.336432 0.775962 0.212979
v -0.028742 0.494725 0.563674
v -0.083642 0.074803 0.580080
v -0.116656 0.269650 0.478105
v -0.281094 0.941751 -0.116035
v -0.140703 0.074274 0.588735
v -0.034840 -0.072393 0.645158
v -0.257797 0.193084 0.473347
v -0.309158 -0.275599 0.016631
v -0.232296 0.501671 -0.642567
v -0.079845 -0.356884 0.533572
v -0.118792 -0.049552 -0.487876
v -0.347905 0.783937 -0.430674
v -0.425886 0.756623 -0.221870
v -0.298649 0.186840 -0.546996
v -0.461568 0.439596 -0.354264
v -0.384987 0.500278 -0.521858
v -0.237340 0.255312 0.496261
v -0.302845 0.282749 0.427314
v -0.353714 -0.314767 -0.325499
v -0.339256 -0.444374 -0.093873
v -0.455963 0.271565 -0.203569
v -0.435849 0.093801 -0.037199
v -0.480633 0.197993 -0.017601
v -0.468441 0.300682 0.001628
v -0.512104 0.321390 -0.083291
v -0.527873 0.279217 -0.190195
v -0.500769 0.102662 -0.194059
v -0.482817 -0.033337 -0.027097
v -0.490531 0.055263 -0.125915
v -0.461258 0.048969 0.014317
v -0.427855 -0.022081 0.023011
v -0.122760 0.304251 0.449120
v -0.223541 0.346043 0.452307
v -0.203868 -0.309573 -0.411139
v -0.108194 -0.665962 0.167068
v -0.371455 -0.629100 -0.041579
v -0.498510 -0.738773 -0.044785
v -0.135265 -0.828903 0.216930
v -0.660961 -0.641950 -0.235773
v -0.299525 -0.764756 0.084837
v -0.428589 -0.645666 -0.572504
v -0.609326 -0.569868 -0.415710
v -0.302400 -0.911789 0.282363
v -0.511812 -0.845392 0.127809
v -0.656078 -0.718512 -0.109025
v -0.609847 -0.786562 0.019807
vt 0.525322 0.995066
vt 0.542732 0.936311
vt 0.548205 0.955378
vt 0.808141 0.718848
vt 0.702518 0.478980
vt 0.797951 0.588219
vt 0.569659 0.379609
vt 0.561901 0.365425
vt 0.576527 0.339120
vt 0.629864 0.424450
vt 0.517398 0.344286
vt 0.528435 0.321992
vt 0.569132 0.262418
vt 0.717537 0.334589
vt 0.778416 0.471267
vt 0.574220 0.658791
vt 0.479535 0.772376
vt 0.489632 0.695656
vt 0.815178 0.941086
vt 0.688908 0.890592
vt 0.797611 0.846737
vt 0.497703 0.599884
vt 0.538671 0.459173
vt 0.507186 0.479907
vt 0.513106 0.448571
vt 0.538057 0.438319
vt 0.497203 0.428503
vt 0.510855 0.387204
vt 0.487773 0.459014
vt 0.675513 0.798546
vt 0.624324 0.755044
vt 0.635240 0.624437
vt 0.622521 0.569584
vt 0.681739 0.595333
vt 0.500000 0.182404
vt 0.588906 0.148459
vt 0.597405 0.199799
vt 0.556675 0.363913
vt 0.501918 0.359203
vt 0.532150 0.857491
vt 0.546757 0.858654
vt 0.566498 0.480565
vt 0.733786 0.259868
vt 0.776329 0.413340
vt 0.869968 0.785593
vt 0.918468 0.794507
vt 0.916172 0.539167
vt 0.873852 0.629150
vt 0.893519 0.387539
vt 0.982826 0.668791
vt 0.955873 0.543433
vt 0.999000 0.553772
vt 0.521958 0.266192
vt 0.594904 0.578378
vt 0.524836 0.366931
vt 0.559362 0.571962
vt 0.830491 0.415049
vt 0.999000 0.386861
vt 0.955517 0.391338
vt 0.936000 0.877000
vt 0.988199 0.202133
vt 0.921447 0.658837
vt 0.771062 0.181546
vt 0.870682 0.195174
vt 0.921480 0.196718
vt 0.854802 0.558875
vt 0.606674 0.558050
vt 0.554222 0.563369
vt 0.638847 0.948380
vt 0.824116 0.576129
vt 0.792789 0.539867
vt 0.791110 0.438774
vt 0.845689 0.552275
vt 0.837497 0.492213
vt 0.792457 0.497641
vt 0.505984 0.910051
vt 0.522679 0.938217
vt 0.488259 0.929468
vt 0.500114 0.970000
vt 0.609292 0.568549
vt 0.564597 0.569675
vt 0.573634 0.981373
vt 0.597503 0.991446
vt 0.584000 0.996000
vt 0.577539 0.954038
vt 0.598227 0.954910
vt 0.615035 0.969749
vt 0.563760 0.966008
vt 0.483825 0.996075
vt 0.500162 0.942016
vt 0.745669 0.101569
vt 0.823014 0.001671
vt 0.586034 0.035498
vt 0.620518 0.002106
vt 0.677983 0.046314
vt 0.999000 0.002437
vt 0.908051 0.002404
vt 0.752864 0.041364
vt 0.580333 0.082764
vt 0.500000 0.047990
vt 0.469714 0.001997
vt 0.958000 0.002000
vt 0.867000 0.002000
vt 0.550000 0.002000
vt 0.697000 0.002000
vt 0.782000 0.002000
vt 0.740000 0.002000
vt 0.467000 0.994000
vt 0.458075 0.940440
vt 0.320836 0.593682
vt 0.204035 0.592402
vt 0.273860 0.493894
vt 0.375095 0.625921
vt 0.361398 0.733990
vt 0.435760 0.652324
vt 0.343706 0.456886
vt 0.286276 0.335852
vt 0.418751 0.354491
vt 0.386780 0.445492
vt 0.455761 0.328511
vt 0.475910 0.345705
vt 0.436601 0.363971
vt 0.432034 0.262150
vt 0.221533 0.471598
vt 0.179862 0.764120
vt 0.323421 0.798266
vt 0.468063 0.441564
vt 0.443666 0.458211
vt 0.399533 0.842974
vt 0.350850 0.936541
vt 0.238079 0.867705
vt 0.435723 0.392656
vt 0.484116 0.381580
vt 0.375149 0.569932
vt 0.403684 0.199622
vt 0.414645 0.147214
vt 0.444201 0.364619
vt 0.384797 0.531490
vt 0.001000 0.669344
vt 0.054118 0.665464
vt 0.088400 0.807800
vt 0.014000 0.778000
vt 0.398214 0.559319
vt 0.445153 0.565564
vt 0.442486 0.568025
vt 0.266513 0.259168
vt 0.223698 0.413416
vt 0.475165 0.515913
vt 0.035598 0.394946
vt 0.018253 0.189800
vt 0.078557 0.202201
vt 0.458935 0.453633
vt 0.472102 0.265706
vt 0.129867 0.785206
vt 0.067812 0.540531
vt 0.016414 0.551651
vt 0.106053 0.386275
vt 0.126185 0.628735
vt 0.481025 0.365964
vt 0.400679 0.580694
vt 0.169511 0.415023
vt 0.229154 0.182284
vt 0.129255 0.196572
vt 0.095097 0.656752
vt 0.145203 0.558857
vt 0.187639 0.939532
vt 0.175882 0.576066
vt 0.207060 0.540058
vt 0.208893 0.438684
vt 0.177441 0.477228
vt 0.158722 0.496014
vt 0.154300 0.552318
vt 0.207813 0.497257
vt 0.493989 0.955813
vt 0.436071 0.569786
vt 0.406925 0.987778
vt 0.410520 0.996000
vt 0.384689 0.969550
vt 0.428179 0.983457
vt 0.176986 0.001670
vt 0.253884 0.101707
vt 0.414157 0.035496
vt 0.322208 0.046224
vt 0.379527 0.002116
vt 0.091973 0.002283
vt 0.038526 0.002043
vt 0.246730 0.041471
vt 0.419817 0.083007
vt 0.133000 0.002000
vt 0.303000 0.002000
vt 0.218000 0.002000
vt 0.260000 0.002000
vt 0.436866 0.965855
vt 0.403093 0.954356
vn 0.1255 -0.8948 0.4285
vn -0.9427 -0.1420 -0.3020
vn 0.3069 -0.1587 0.9384
vn 0.9584 0.2850 0.0151
vn 0.9479 -0.0636 0.3121
vn 0.9496 0.1476 0.2766
vn 0.4318 -0.2311 0.8719
vn 0.6903 -0.3004 0.6582
vn 0.7428 -0.1087 0.6606
vn 0.2672 0.2960 0.9171
vn 0.3055 -0.3522 0.8846
vn 0.5239 -0.7731 0.3577
vn 0.8798 -0.4724 0.0519
vn 0.9827 -0.0084 0.1852
vn 0.3622 0.0336 0.9315
vn -0.1028 0.4357 0.8942
vn -0.0143 0.1131 0.9935
vn -0.0137 0.9583 -0.2854
vn 0.4107 0.8868 0.2120
vn 0.6190 0.7729 -0.1397
vn 0.0008 0.0801 0.9968
vn 0.8171 -0.2541 0.5175
vn 0.2093 0.2404 0.9478
vn 0.3111 -0.5589 0.7687
vn 0.5391 -0.3468 0.7675
vn 0.0950 -0.0060 0.9955
vn 0.2182 0.0043 0.9759
vn -0.3999 -0.2412 0.8842
vn 0.7974 0.4830 0.3616
vn 0.6799 0.3903 0.6208
vn 0.7528 -0.0507 0.6563
vn 0.3712 -0.8621 0.3450
vn 0.9214 0.0828 0.3798
vn -0.0011 -0.8623 0.5064
vn 0.6837 -0.2995 0.6654
vn 0.5800 -0.7638 0.2833
vn -0.0109 0.9986 -0.0521
vn 0.1991 0.7446 0.6371
vn 0.5472 0.1670 0.8202
vn 0.8977 -0.3417 0.2782
vn 0.8173 -0.5671 -0.1023
vn 0.6977 0.5397 -0.4711
vn 0.2623 0.5951 -0.7597
vn 0.7832 -0.3325 -0.5254
vn 0.9597 -0.0198 -0.2802
vn 0.8002 -0.1762 -0.5732
vn 0.0909 0.1108 -0.9897
vn 0.3712 -0.3601 -0.8559
vn -0.1169 -0.3460 -0.9309
vn 0.1967 -0.6611 0.7241
vn 0.3320 -0.7374 0.5882
vn 0.5337 0.2380 0.8115
vn 0.7564 -0.5067 -0.4137
vn -0.2630 -0.3697 -0.8912
vn 0.3340 -0.3573 -0.8722
vn -0.2886 0.6226 -0.7274
vn 0.0195 0.1044 -0.9943
vn 0.6481 0.0791 -0.7575
vn 0.9727 0.0557 0.2251
vn 0.8288 0.3637 -0.4252
vn 0.2999 0.2291 -0.9260
vn 0.8204 0.0319 -0.5709
vn 0.3540 0.5410 0.7629
vn 0.4124 0.5164 0.7505
vn -0.1132 0.9629 0.2450
vn 0.4948 0.8430 0.2109
vn 0.9622 -0.1501 0.2273
vn 0.6530 -0.7425 0.1494
vn 0.7235 0.4204 -0.5475
vn 0.5770 -0.3848 -0.7204
vn 0.9915 0.1290 -0.0181
vn -0.8551 0.5184 0.0026
vn 0.2313 0.8084 -0.5413
vn -0.0707 -0.9604 0.2694
vn -0.4614 -0.8872 0.0050
vn 0.8407 -0.1848 0.5090
vn 0.0186 -0.9819 0.1887
vn -0.0177 0.9042 0.4268
vn 0.5807 0.4404 0.6847
vn 0.4998 0.7165 0.4866
vn -0.0129 0.5402 0.8414
vn 0.0978 0.7248 0.6820
vn 0.4013 0.5535 0.7298
vn -0.0143 0.4552 -0.8903
vn 0.1902 0.5653 -0.8027
vn 0.2900 0.7537 0.5898
vn 0.2143 0.0993 0.9717
vn -0.0252 0.3199 0.9471
vn 0.0396 0.5118 0.8582
vn -0.0351 0.6666 -0.7446
vn 0.6154 0.7278 -0.3028
vn -0.1209 0.5367 0.8350
vn 0.1807 0.7871 0.5897
vn 0.1009 0.8541 0.5102
vn 0.1312 0.8577 0.4971
vn -0.3840 -0.1344 0.9135
vn 0.9678 0.1230 -0.2197
vn -0.9174 0.0881 0.3881
vn -0.9572 0.1639 0.2387
vn -0.9733 -0.0565 0.2223
vn -0.7179 -0.0005 0.6962
vn -0.7541 0.3165 0.5754
vn -0.3534 0.0155 0.9353
vn -0.8429 -0.0871 0.5310
vn -0.8799 -0.4703 0.0682
vn -0.6968 -0.2752 0.6624
vn -0.5551 0.0528 0.8301
vn -0.4905 -0.1876 0.8510
vn -0.3859 0.3587 0.8499
vn -0.5172 -0.7785 0.3557
vn -0.9876 -0.0167 0.1559
vn -0.9149 0.3993 -0.0597
vn -0.8014 0.4944 0.3368
vn -0.3987 -0.7006 0.5918
vn -0.4610 -0.0743 0.8843
vn -0.4078 0.7199 0.5617
vn -0.5511 0.8344 -0.0085
vn -0.4498 -0.2372 0.8611
vn -0.1745 -0.1446 0.9740
vn -0.6496 -0.2607 0.7142
vn -0.5867 -0.7579 0.2854
vn -0.6805 -0.2945 0.6710
vn -0.5085 0.0869 0.8567
vn -0.3827 0.1139 -0.9168
vn -0.2860 0.2683 0.9199
vn -0.6921 0.0936 0.7157
vn -0.5954 0.7085 0.3788
vn -0.8980 -0.3395 0.2799
vn -0.8191 -0.5670 -0.0876
vn -0.5540 0.4080 0.7257
vn -0.3186 0.2273 -0.9202
vn -0.7686 -0.5103 0.3858
vn -0.2189 -0.6962 0.6837
vn -0.6843 0.5564 -0.4713
vn -0.6461 -0.3334 -0.6866
vn -0.7980 -0.1802 -0.5751
vn -0.9669 -0.0274 -0.2537
vn -0.2908 -0.7343 0.6133
vn -0.7577 -0.5059 -0.4123
vn -0.9709 0.0628 0.2311
vn -0.8304 0.3625 -0.4231
vn -0.7888 0.0852 -0.6088
vn -0.8069 0.0317 -0.5898
vn -0.5229 0.8382 0.1551
vn -0.9724 -0.1664 0.1636
vn -0.6518 -0.7443 0.1457
vn -0.9273 0.1788 0.3290
vn -0.4851 -0.3645 -0.7948
vn -0.7293 0.4310 -0.5315
vn -0.9974 0.0709 0.0116
vn 0.2097 -0.0786 0.9746
vn -0.7416 -0.3229 0.5880
vn 0.0755 -0.9469 0.3125
vn -0.4999 0.7162 0.4871
vn -0.5810 0.4428 0.6829
vn 0.0444 0.4789 0.8767
vn -0.4025 0.5551 0.7280
vn -0.0751 0.7002 0.7100
vn -0.2115 0.5427 -0.8129
vn -0.2878 0.7544 0.5900
vn -0.2210 0.0919 0.9709
vn -0.6162 0.7260 -0.3052
vn -0.1800 0.7878 0.5891
vn -0.0975 0.8552 0.5090
vn -0.1309 0.8575 0.4975
usemtl None
s 1
f 37/1/1 4/2/2 3/3/3
f 48/4/4 18/5/5 62/6/6
f 23/7/7 3/8/3 20/9/8
f 6/10/9 23/7/7 20/9/8
f 20/9/8 3/8/3 21/11/10
f 20/9/8 21/11/10 22/12/11
f 6/10/9 5/13/12 26/14/13
f 18/5/5 26/14/13 67/15/14
f 14/16/15 29/17/16 120/18/17
f 35/19/18 34/20/19 47/21/20
f 120/18/17 38/22/21 14/16/15
f 44/23/22 30/24/23 17/25/24
f 31/26/25 17/25/24 32/27/26
f 31/26/25 32/27/26 33/28/27
f 106/29/28 17/25/24 30/24/23
f 48/4/4 28/30/29 13/31/30
f 11/32/31 12/33/32 19/34/33
f 18/5/5 48/4/4 19/34/33
f 54/35/34 10/36/35 9/37/36
f 21/11/10 4/38/2 2/39/37
f 27/40/38 29/17/16 13/31/30
f 27/41/38 13/31/30 28/30/29
f 21/11/10 3/8/3 4/38/2
f 6/10/9 26/14/13 18/5/5
f 24/42/39 23/7/7 6/10/9
f 9/37/36 39/43/40 26/14/13
f 9/37/36 26/14/13 5/13/12
f 26/14/13 68/44/41 67/15/14
f 24/42/39 30/24/23 44/23/22
f 46/45/42 47/21/20 48/4/4
f 35/19/18 47/21/20 41/46/43
f 50/47/44 51/48/45 7/49/46
f 40/50/47 49/51/48 52/52/49
f 34/20/19 27/41/38 28/30/29
f 34/20/19 28/30/29 47/21/20
f 5/13/12 42/53/50 54/35/34
f 11/32/31 15/54/51 12/33/32
f 23/7/7 33/28/27 37/55/1
f 42/53/50 5/13/12 20/9/8
f 38/22/21 30/24/23 24/42/39
f 15/54/51 14/16/15 16/56/52
f 11/32/31 13/31/30 14/16/15
f 39/43/40 8/57/53 68/44/41
f 130/58/54 52/52/49 49/51/48
f 130/58/54 49/51/48 43/59/55
f 35/19/18 41/46/43 58/60/56
f 43/59/55 59/61/57 130/58/54
f 53/62/58 40/50/47 41/46/43
f 39/43/40 57/63/59 8/57/53
f 8/57/53 57/63/59 56/64/60
f 56/64/60 7/49/46 8/57/53
f 7/49/46 56/64/60 76/65/61
f 51/48/45 53/62/58 46/45/42
f 51/48/45 46/45/42 48/4/4
f 62/6/6 60/66/62 51/48/45
f 62/6/6 51/48/45 48/4/4
f 14/16/15 13/31/30 29/17/16
f 19/34/33 6/10/9 18/5/5
f 5/13/12 6/10/9 20/9/8
f 19/34/33 13/31/30 11/32/31
f 15/54/51 11/32/31 14/16/15
f 20/9/8 22/12/11 42/53/50
f 38/22/21 16/56/52 14/16/15
f 45/67/63 6/10/9 19/34/33
f 45/67/63 25/68/64 24/42/39
f 25/68/64 38/22/21 24/42/39
f 31/26/25 44/23/22 17/25/24
f 31/26/25 23/7/7 24/42/39
f 23/7/7 31/26/25 33/28/27
f 23/7/7 37/55/1 3/8/3
f 35/19/18 36/69/65 34/20/19
f 27/41/38 34/20/19 36/69/65
f 39/43/40 9/37/36 10/36/35
f 7/49/46 76/65/61 43/59/55
f 43/59/55 49/51/48 50/47/44
f 43/59/55 50/47/44 7/49/46
f 53/62/58 50/47/44 49/51/48
f 53/62/58 41/46/43 46/45/42
f 76/65/61 59/61/57 43/59/55
f 19/34/33 48/4/4 13/31/30
f 46/45/42 41/46/43 47/21/20
f 44/23/22 31/26/25 24/42/39
f 63/70/66 62/6/6 61/71/67
f 67/15/14 68/44/41 66/72/68
f 67/15/14 61/71/67 62/6/6
f 60/66/62 62/6/6 63/70/66
f 60/66/62 64/73/69 65/74/70
f 65/74/70 66/72/68 8/57/53
f 66/72/68 68/44/41 8/57/53
f 69/75/71 67/15/14 65/74/70
f 69/75/71 61/71/67 67/15/14
f 63/70/66 65/74/70 64/73/69
f 8/57/53 60/66/62 65/74/70
f 65/74/70 67/15/14 66/72/68
f 7/49/46 60/66/62 8/57/53
f 54/35/34 9/37/36 5/13/12
f 38/22/21 25/68/64 16/56/52
f 12/33/32 45/67/63 19/34/33
f 6/10/9 45/67/63 24/42/39
f 50/47/44 53/62/58 51/48/45
f 49/51/48 40/50/47 53/62/58
f 60/66/62 7/49/46 51/48/45
f 67/15/14 62/6/6 18/5/5
f 28/30/29 48/4/4 47/21/20
f 2/76/37 70/77/72 71/78/73
f 4/2/2 72/79/74 70/77/72
f 55/80/75 12/33/32 15/54/51
f 15/54/51 16/56/52 74/81/76
f 74/82/76 55/83/75 15/84/51
f 25/85/64 45/86/63 12/87/32
f 25/85/64 12/87/32 16/88/52
f 39/43/40 68/44/41 26/14/13
f 65/74/70 63/70/66 69/75/71
f 37/1/1 1/89/77 72/79/74
f 70/77/72 73/90/78 71/78/73
f 56/64/60 78/91/79 81/92/80
f 80/93/81 89/94/82 82/95/83
f 84/96/84 59/61/57 76/65/61
f 84/96/84 76/65/61 83/97/85
f 56/64/60 83/97/85 76/65/61
f 78/91/79 82/95/83 79/98/86
f 81/92/80 78/91/79 79/98/86
f 82/95/83 78/91/79 57/63/59
f 82/95/83 57/63/59 39/43/40
f 82/95/83 39/43/40 77/99/87
f 82/95/83 77/99/87 80/93/81
f 85/100/88 80/93/81 77/99/87
f 57/63/59 78/91/79 56/64/60
f 80/93/81 85/100/88 86/101/89
f 85/100/88 77/99/87 10/36/35
f 85/100/88 10/36/35 54/35/34
f 77/99/87 39/43/40 10/36/35
f 84/96/84 83/97/85 87/102/90
f 88/103/91 56/64/60 81/92/80
f 56/64/60 88/103/91 83/97/85
f 89/94/82 80/93/81 90/104/92
f 91/105/93 82/95/83 89/94/82
f 81/92/80 79/98/86 92/106/94
f 93/107/95 79/98/86 82/95/83
f 93/107/95 82/95/83 91/105/93
f 90/104/92 80/93/81 86/101/89
f 93/107/95 92/106/94 79/98/86
f 1/89/77 109/108/96 94/109/97
f 110/110/98 143/111/99 99/112/100
f 102/113/101 103/114/102 110/110/98
f 103/114/102 102/113/101 104/115/103
f 103/114/102 104/115/103 29/17/16
f 96/116/104 99/112/100 107/117/105
f 96/116/104 108/118/106 111/119/107
f 112/120/108 113/121/109 109/122/96
f 96/116/104 107/117/105 95/123/110
f 99/112/100 149/124/111 107/117/105
f 132/125/112 143/111/99 119/126/113
f 121/127/114 116/128/115 33/28/27
f 121/127/114 33/28/27 32/27/26
f 27/40/38 118/129/116 29/17/16
f 118/129/116 36/130/65 123/131/117
f 120/18/17 104/115/103 38/22/21
f 109/122/96 114/132/118 108/118/106
f 125/133/119 37/55/1 33/28/27
f 143/111/99 103/114/102 119/126/113
f 102/113/101 110/110/98 137/134/120
f 54/35/34 100/135/121 101/136/122
f 113/121/109 2/39/37 94/137/97
f 96/116/104 126/138/123 110/110/98
f 40/139/47 128/140/124 58/141/56
f 40/139/47 58/141/56 41/142/43
f 113/121/109 94/137/97 109/122/96
f 136/143/125 126/138/123 117/144/126
f 122/145/127 136/143/125 117/144/126
f 100/135/121 95/123/110 107/117/105
f 100/135/121 107/117/105 127/146/128
f 107/117/105 149/124/111 150/147/129
f 106/29/28 30/24/23 115/148/130
f 130/149/54 59/150/57 153/151/131
f 115/148/130 111/119/107 116/128/115
f 38/22/21 115/148/130 30/24/23
f 115/148/130 116/128/115 124/152/132
f 115/148/130 124/152/132 106/29/28
f 2/39/37 113/121/109 21/11/10
f 106/29/28 121/127/114 32/27/26
f 95/123/110 42/53/50 129/153/133
f 131/154/134 132/125/112 123/131/117
f 133/155/135 52/156/49 130/149/54
f 133/155/135 97/157/136 134/158/137
f 40/139/47 52/156/49 128/140/124
f 143/111/99 132/125/112 134/158/137
f 123/131/117 119/126/113 118/129/116
f 95/123/110 54/35/34 42/53/50
f 129/153/133 112/120/108 108/118/106
f 114/132/118 109/122/96 125/133/119
f 125/133/119 109/122/96 1/159/77
f 37/55/1 125/133/119 1/159/77
f 129/153/133 108/118/106 95/123/110
f 95/123/110 108/118/106 96/116/104
f 109/122/96 108/118/106 112/120/108
f 117/144/126 111/119/107 115/148/130
f 105/160/138 117/144/126 104/115/103
f 127/146/128 150/147/129 98/161/139
f 127/146/128 98/161/139 139/162/140
f 98/161/139 138/163/141 139/162/140
f 138/163/141 98/161/139 97/157/136
f 97/157/136 153/151/131 138/163/141
f 134/158/137 132/125/112 131/154/134
f 134/158/137 131/154/134 135/164/142
f 143/111/99 134/158/137 140/165/143
f 104/115/103 120/18/17 29/17/16
f 136/143/125 137/134/120 110/110/98
f 118/129/116 119/126/113 103/114/102
f 118/129/116 103/114/102 29/17/16
f 105/160/138 102/113/101 137/134/120
f 105/160/138 104/115/103 102/113/101
f 108/118/106 114/132/118 111/119/107
f 38/22/21 104/115/103 117/144/126
f 21/11/10 113/121/109 112/120/108
f 21/11/10 112/120/108 22/12/11
f 112/120/108 129/153/133 42/53/50
f 112/120/108 42/53/50 22/12/11
f 17/25/24 106/29/28 32/27/26
f 117/144/126 115/148/130 38/22/21
f 99/112/100 96/116/104 110/110/98
f 110/110/98 126/138/123 136/143/125
f 116/128/115 114/132/118 125/133/119
f 116/128/115 125/133/119 33/28/27
f 106/29/28 124/152/132 121/127/114
f 35/166/18 123/131/117 36/130/65
f 118/129/116 27/40/38 36/130/65
f 127/146/128 101/136/122 100/135/121
f 97/157/136 130/149/54 153/151/131
f 130/149/54 97/157/136 133/155/135
f 135/164/142 128/140/124 133/155/135
f 135/164/142 131/154/134 58/141/56
f 135/164/142 58/141/56 128/140/124
f 111/119/107 126/138/123 96/116/104
f 110/110/98 103/114/102 143/111/99
f 131/154/134 123/131/117 35/166/18
f 131/154/134 35/166/18 58/141/56
f 116/128/115 111/119/107 114/132/118
f 124/152/132 116/128/115 121/127/114
f 144/167/144 142/168/145 143/111/99
f 147/169/146 148/170/147 146/171/148
f 149/124/111 147/169/146 150/147/129
f 149/124/111 143/111/99 142/168/145
f 140/165/143 144/167/144 143/111/99
f 140/165/143 146/171/148 145/172/149
f 146/171/148 98/161/139 147/169/146
f 147/169/146 98/161/139 150/147/129
f 141/173/150 148/170/147 149/124/111
f 141/173/150 149/124/111 142/168/145
f 144/167/144 145/172/149 146/171/148
f 98/161/139 146/171/148 140/165/143
f 148/170/147 147/169/146 149/124/111
f 97/157/136 98/161/139 140/165/143
f 54/35/34 95/123/110 100/135/121
f 111/119/107 117/144/126 126/138/123
f 133/155/135 134/158/137 135/164/142
f 52/156/49 133/155/135 128/140/124
f 140/165/143 134/158/137 97/157/136
f 149/124/111 99/112/100 143/111/99
f 123/131/117 132/125/112 119/126/113
f 94/109/97 75/174/151 72/79/74
f 94/109/97 71/78/73 73/90/78
f 105/160/138 151/175/152 117/144/126
f 152/176/153 105/177/138 137/178/120
f 122/145/127 117/144/126 151/175/152
f 151/179/152 105/177/138 152/176/153
f 127/146/128 107/117/105 150/147/129
f 148/170/147 144/167/144 146/171/148
f 138/163/141 158/180/154 155/181/155
f 157/182/156 159/183/157 162/184/158
f 160/185/159 153/151/131 84/186/84
f 84/186/84 153/151/131 59/150/57
f 138/163/141 153/151/131 160/185/159
f 155/181/155 156/187/160 159/183/157
f 158/180/154 156/187/160 155/181/155
f 159/183/157 127/146/128 139/162/140
f 159/183/157 139/162/140 155/181/155
f 159/183/157 154/188/161 127/146/128
f 159/183/157 157/182/156 154/188/161
f 85/100/88 154/188/161 157/182/156
f 139/162/140 138/163/141 155/181/155
f 157/182/156 86/101/89 85/100/88
f 85/100/88 54/35/34 101/136/122
f 85/100/88 101/136/122 154/188/161
f 154/188/161 101/136/122 127/146/128
f 161/189/162 158/180/154 138/163/141
f 138/163/141 160/185/159 161/189/162
f 162/184/158 86/101/89 157/182/156
f 163/190/163 162/184/158 159/183/157
f 158/180/154 164/191/164 156/187/160
f 165/192/165 163/190/163 159/183/157
f 165/192/165 159/183/157 156/187/160
f 165/192/165 156/187/160 164/191/164
f 72/79/74 4/2/2 37/1/1
f 63/70/66 64/73/69 60/66/62
f 2/76/37 4/2/2 70/77/72
f 74/82/76 12/87/32 55/83/75
f 74/82/76 16/88/52 12/87/32
f 69/75/71 63/70/66 61/71/67
f 75/174/151 73/90/78 70/77/72
f 75/174/151 70/77/72 72/79/74
f 94/109/97 72/79/74 1/89/77
f 145/172/149 144/167/144 140/165/143
f 94/109/97 2/76/37 71/78/73
f 137/178/120 151/179/152 152/176/153
f 122/193/127 151/179/152 136/194/125
f 151/179/152 137/178/120 136/194/125
f 144/167/144 141/173/150 142/168/145
f 148/170/147 141/173/150 144/167/144
f 94/109/97 73/90/78 75/174/151
